<?xml version="1.0" encoding="utf-8"?>
<!-- Generator: Adobe Illustrator 20.1.0, SVG Export Plug-In . SVG Version: 6.00 Build 0)  -->
<!DOCTYPE svg PUBLIC "-//W3C//DTD SVG 1.1//EN" "http://www.w3.org/Graphics/SVG/1.1/DTD/svg11.dtd">
<svg version="1.1" xmlns="http://www.w3.org/2000/svg" xmlns:xlink="http://www.w3.org/1999/xlink" x="0px" y="0px"
	 viewBox="0 0 840 100" style="enable-background:new 0 0 840 100;" xml:space="preserve">
<style type="text/css">
	.st0{fill:none;stroke:#990000;stroke-width:2;stroke-linecap:round;stroke-linejoin:round;stroke-miterlimit:10;}
	.st1{fill:#990000;}
	.st2{fill:#EEEDEB;}
	.st3{fill:#FFFFFF;}
</style>
<g id="Arrows">
	<path class="st0" d="M64,43"/>
	<polygon class="st1" points="106,74 112,80 106,86 104,84 108,80 104,76 	"/>
	<polygon class="st1" points="231,74 237,80 231,86 229,84 233,80 229,76 	"/>
	<polygon class="st1" points="356,74 362,80 356,86 354,84 358,80 354,76 	"/>
	<polygon class="st1" points="481,74 487,80 481,86 479,84 483,80 479,76 	"/>
	<polygon class="st1" points="606,74 612,80 606,86 604,84 608,80 604,76 	"/>
	<polygon class="st1" points="731,74 737,80 731,86 729,84 733,80 729,76 	"/>
</g>
<g id="mouseover_matriculate">
	<a xlink:href="/education/md/admissions/matriculation" style="text-decoration:none;">
	<rect x="750" class="st2" width="90" height="60"/>
	<rect x="750" y="60" class="st1" width="90" height="40"/>
	<g>
		<g>

			<path class="st3" d="M763.1,84.8V76h2l2.4,7h0l2.3-7h2v8.9h-1.5v-6.6h0c-0.1,0.6-0.3,1.2-0.5,1.8l-1.7,4.8h-1.3L765,80
				c-0.2-0.6-0.3-1-0.5-1.9h0v6.7H763.1z"/>
			<path class="st3" d="M773.2,83.3c0-1.4,1.2-2.3,4.2-2.6v-0.2c0-0.6-0.3-0.9-1-0.9c-0.9,0-1.6,0.4-2.1,0.9l-0.7-0.9
				c0.7-0.6,1.8-1.2,3.1-1.2c1.7,0,2.3,0.8,2.3,2.3v2.6c0,0.8,0,1.2,0.2,1.6h-1.5c-0.1-0.3-0.1-0.5-0.1-0.8
				c-0.6,0.7-1.4,0.9-2.4,0.9C774,84.9,773.2,84.4,773.2,83.3z M777.3,83.1v-1.4c-1.8,0.2-2.7,0.7-2.7,1.4c0,0.5,0.3,0.8,0.9,0.8
				C776.3,83.8,776.9,83.5,777.3,83.1z"/>
			<path class="st3" d="M780.9,83.2v-3.5h-1.1v-1.2h1.1v-2.2h1.5v2.2h1.6v1.2h-1.6v3.2c0,0.7,0.2,1,0.9,1c0.2,0,0.5,0,0.6-0.1v1.2
				c-0.2,0-0.7,0.1-1.1,0.1C781.2,84.9,780.9,84.3,780.9,83.2z"/>
			<path class="st3" d="M785.2,84.8v-6.4h1.5v1h0c0.4-0.6,1.1-1.2,2.3-1.2h0.1l0,1.4c-0.1,0-0.3,0-0.4,0c-0.9,0-1.5,0.4-2,1.1v4
				H785.2z"/>
			<path class="st3" d="M790.2,77.4v-1.3h1.5v1.3H790.2z M790.2,84.8v-6.4h1.5v6.4H790.2z"/>
			<path class="st3" d="M793.1,81.7c0-2.4,1.6-3.3,3.1-3.3c1.6,0,2.3,0.9,2.6,1.9l-1.2,0.4c-0.3-0.7-0.7-1.1-1.4-1.1
				c-0.8,0-1.5,0.6-1.5,2.1c0,1.4,0.6,2.1,1.5,2.1c0.7,0,1.1-0.2,1.5-1.1l1.2,0.4c-0.5,1-1.2,1.9-2.7,1.9
				C794.6,85,793.1,84,793.1,81.7z"/>
			<path class="st3" d="M799.9,83v-4.6h1.5v4.2c0,0.7,0.3,1,0.9,1c0.6,0,1.2-0.3,1.7-0.8v-4.4h1.5v6.4H804V84c-0.4,0.4-1.2,1-2.3,1
				C800.6,85,799.9,84.3,799.9,83z"/>
			<path class="st3" d="M807.3,84.8V76h1.5v8.9H807.3z"/>
			<path class="st3" d="M810,83.3c0-1.4,1.2-2.3,4.1-2.6v-0.2c0-0.6-0.3-0.9-1-0.9c-0.9,0-1.6,0.4-2.1,0.9l-0.7-0.9
				c0.7-0.6,1.8-1.2,3.1-1.2c1.7,0,2.3,0.8,2.3,2.3v2.6c0,0.8,0,1.2,0.2,1.6h-1.5c-0.1-0.3-0.1-0.5-0.1-0.8
				c-0.6,0.7-1.4,0.9-2.4,0.9C810.8,84.9,810,84.4,810,83.3z M814.2,83.1v-1.4c-1.8,0.2-2.7,0.7-2.7,1.4c0,0.5,0.3,0.8,0.9,0.8
				C813.1,83.8,813.7,83.5,814.2,83.1z"/>
			<path class="st3" d="M817.7,83.2v-3.5h-1.1v-1.2h1.1v-2.2h1.5v2.2h1.6v1.2h-1.6v3.2c0,0.7,0.2,1,0.9,1c0.2,0,0.5,0,0.6-0.1v1.2
				c-0.2,0-0.7,0.1-1.1,0.1C818.1,84.9,817.7,84.3,817.7,83.2z"/>
			<path class="st3" d="M821.7,81.7c0-2.4,1.7-3.3,3-3.3c1.4,0,2.8,0.9,2.8,3.4v0.3h-4.4c0.1,1.2,0.8,1.7,1.7,1.7
				c0.8,0,1.3-0.3,1.8-0.7l0.8,0.8c-0.7,0.7-1.5,1.2-2.7,1.2C823.1,85,821.7,84,821.7,81.7z M826.1,81c-0.1-1-0.6-1.5-1.5-1.5
				c-0.7,0-1.4,0.4-1.5,1.5H826.1z"/>
		</g>
	</g>
	</a>
</g>
<g id="mouseover_attend">
	<a xlink:href="/education/md/admissions/orientation" style="text-decoration:none;">
	<rect x="625" class="st2" width="90" height="60"/>
	<rect x="625" y="60" class="st1" width="90" height="40"/>
	<g>
		<g>

			<path class="st3" d="M650.8,78.3l3.1-8.9h1.5l3.1,8.9H657l-0.7-2.1h-3.4l-0.7,2.1H650.8z M653.4,74.9h2.5l-1.2-3.6h0L653.4,74.9z
				"/>
			<path class="st3" d="M659.9,76.7v-3.5h-1.1V72h1.1v-2.2h1.5V72h1.6v1.2h-1.6v3.2c0,0.7,0.2,1,0.9,1c0.2,0,0.5,0,0.6-0.1v1.2
				c-0.2,0-0.7,0.1-1.1,0.1C660.3,78.4,659.9,77.8,659.9,76.7z"/>
			<path class="st3" d="M664.8,76.7v-3.5h-1.1V72h1.1v-2.2h1.5V72h1.6v1.2h-1.6v3.2c0,0.7,0.2,1,0.9,1c0.2,0,0.5,0,0.6-0.1v1.2
				c-0.2,0-0.7,0.1-1.1,0.1C665.1,78.4,664.8,77.8,664.8,76.7z"/>
			<path class="st3" d="M668.7,75.2c0-2.4,1.7-3.3,3-3.3c1.4,0,2.8,0.9,2.8,3.4v0.3h-4.4c0.1,1.2,0.8,1.7,1.7,1.7
				c0.8,0,1.3-0.3,1.8-0.7l0.8,0.8c-0.7,0.7-1.5,1.2-2.7,1.2C670.1,78.5,668.7,77.5,668.7,75.2z M673.1,74.5c-0.1-1-0.6-1.5-1.5-1.5
				c-0.7,0-1.4,0.4-1.5,1.5H673.1z"/>
			<path class="st3" d="M675.8,78.3V72h1.5v1c0.5-0.6,1.2-1.1,2.3-1.1c1.2,0,1.9,0.6,1.9,1.9v4.6H680v-4.2c0-0.7-0.3-1.1-1-1.1
				c-0.6,0-1.2,0.3-1.7,0.8v4.4H675.8z"/>
			<path class="st3" d="M682.7,75.2c0-2.2,1.1-3.3,2.7-3.3c0.7,0,1.4,0.3,1.8,0.8v-3.2h1.5v7.3c0,0.8,0,1.2,0.2,1.6h-1.5
				c-0.1-0.2-0.1-0.5-0.1-0.9c-0.5,0.5-1.1,1-2,1C683.8,78.4,682.7,77.4,682.7,75.2z M687.2,76.4v-2.6c-0.4-0.5-1-0.8-1.5-0.8
				c-1.1,0-1.6,0.7-1.6,2.1c0,1.3,0.6,2,1.5,2C686.3,77.2,686.9,76.8,687.2,76.4z"/>
			<path class="st3" d="M637.9,85.9c0-3,1.8-4.6,4-4.6c2.2,0,4,1.6,4,4.6s-1.8,4.6-4,4.6C639.7,90.5,637.9,88.9,637.9,85.9z
				 M644.4,85.9c0-2.1-1-3.2-2.5-3.2c-1.5,0-2.5,1.1-2.5,3.2s1,3.2,2.5,3.2C643.4,89.2,644.4,88,644.4,85.9z"/>
			<path class="st3" d="M647.2,90.3V84h1.5v1h0c0.4-0.6,1.1-1.2,2.3-1.2h0.1l0,1.4c-0.1,0-0.3,0-0.4,0c-0.9,0-1.5,0.4-2,1.1v4H647.2
				z"/>
			<path class="st3" d="M652.2,82.9v-1.3h1.5v1.3H652.2z M652.2,90.3V84h1.5v6.4H652.2z"/>
			<path class="st3" d="M655.1,87.2c0-2.4,1.7-3.3,3-3.3c1.4,0,2.8,0.9,2.8,3.4v0.3h-4.4c0.1,1.2,0.8,1.7,1.7,1.7
				c0.8,0,1.3-0.3,1.8-0.7l0.8,0.8c-0.7,0.7-1.5,1.2-2.7,1.2C656.5,90.5,655.1,89.5,655.1,87.2z M659.5,86.5c-0.1-1-0.6-1.5-1.5-1.5
				c-0.7,0-1.4,0.4-1.5,1.5H659.5z"/>
			<path class="st3" d="M662.2,90.3V84h1.5v1c0.5-0.6,1.2-1.1,2.3-1.1c1.2,0,1.9,0.6,1.9,1.9v4.6h-1.5v-4.2c0-0.7-0.3-1.1-1-1.1
				c-0.6,0-1.2,0.3-1.7,0.8v4.4H662.2z"/>
			<path class="st3" d="M669.9,88.7v-3.5h-1.1V84h1.1v-2.2h1.5V84h1.6v1.2h-1.6v3.2c0,0.7,0.2,1,0.9,1c0.2,0,0.5,0,0.6-0.1v1.2
				c-0.2,0-0.7,0.1-1.1,0.1C670.3,90.4,669.9,89.8,669.9,88.7z"/>
			<path class="st3" d="M673.8,88.8c0-1.4,1.2-2.3,4.1-2.6V86c0-0.6-0.3-0.9-1-0.9c-0.9,0-1.6,0.4-2.1,0.9l-0.7-0.9
				c0.7-0.6,1.8-1.2,3.1-1.2c1.7,0,2.3,0.8,2.3,2.3v2.6c0,0.8,0,1.2,0.2,1.6h-1.5c-0.1-0.3-0.1-0.5-0.1-0.8
				c-0.6,0.7-1.4,0.9-2.3,0.9C674.6,90.4,673.8,89.9,673.8,88.8z M678,88.6v-1.4c-1.8,0.2-2.7,0.7-2.7,1.4c0,0.5,0.3,0.8,0.9,0.8
				C676.9,89.3,677.5,89,678,88.6z"/>
			<path class="st3" d="M681.5,88.7v-3.5h-1.1V84h1.1v-2.2h1.5V84h1.6v1.2H683v3.2c0,0.7,0.2,1,0.9,1c0.2,0,0.5,0,0.6-0.1v1.2
				c-0.2,0-0.7,0.1-1.1,0.1C681.9,90.4,681.5,89.8,681.5,88.7z"/>
			<path class="st3" d="M685.9,82.9v-1.3h1.5v1.3H685.9z M685.9,90.3V84h1.5v6.4H685.9z"/>
			<path class="st3" d="M688.7,87.2c0-2.4,1.5-3.3,3.1-3.3c1.5,0,3.1,1,3.1,3.3c0,2.3-1.6,3.3-3.1,3.3S688.7,89.5,688.7,87.2z
				 M693.5,87.2c0-1.2-0.5-2.1-1.6-2.1c-1.1,0-1.6,0.8-1.6,2.1c0,1.2,0.5,2.1,1.6,2.1C692.9,89.2,693.5,88.5,693.5,87.2z"/>
			<path class="st3" d="M696.3,90.3V84h1.5v1c0.5-0.6,1.2-1.1,2.3-1.1c1.2,0,1.9,0.6,1.9,1.9v4.6h-1.5v-4.2c0-0.7-0.3-1.1-1-1.1
				c-0.6,0-1.2,0.3-1.7,0.8v4.4H696.3z"/>

		</g>
	</g>
	</a>
</g>
<g id="mouseover_rank">
	<a xlink:href="/education/md/admissions/campus-placement/" style="text-decoration:none;">
	<rect x="500" class="st2" width="90" height="60"/>
	<rect x="500" y="60" class="st1" width="90" height="40"/>
	<g>
		<g>
			<path class="st3" d="M531.5,78.3v-8.9h3.2c2.1,0,3.3,0.9,3.3,2.7c0,1.4-0.7,2.2-2,2.5l2.1,3.7h-1.6l-2-3.5H533v3.5H531.5z
				 M533,73.5h1.6c1.2,0,1.9-0.3,1.9-1.4c0-1-0.7-1.3-1.9-1.3H533V73.5z"/>
			<path class="st3" d="M539.1,76.8c0-1.4,1.2-2.3,4.1-2.6V74c0-0.6-0.3-0.9-1-0.9c-0.9,0-1.6,0.4-2.1,0.9l-0.7-0.9
				c0.7-0.6,1.8-1.2,3.1-1.2c1.7,0,2.3,0.8,2.3,2.3v2.6c0,0.8,0,1.2,0.2,1.6h-1.5c-0.1-0.3-0.1-0.5-0.1-0.8
				c-0.6,0.7-1.4,0.9-2.4,0.9C539.9,78.4,539.1,77.9,539.1,76.8z M543.3,76.6v-1.4c-1.8,0.2-2.7,0.7-2.7,1.4c0,0.5,0.3,0.8,0.9,0.8
				C542.2,77.3,542.8,77,543.3,76.6z"/>
			<path class="st3" d="M546.3,78.3V72h1.5v1c0.5-0.6,1.2-1.1,2.3-1.1c1.2,0,1.9,0.6,1.9,1.9v4.6h-1.5v-4.2c0-0.7-0.3-1.1-1-1.1
				c-0.6,0-1.2,0.3-1.7,0.8v4.4H546.3z"/>
			<path class="st3" d="M553.5,78.3v-8.9h1.5v5.3l2.4-2.8h1.6l-2.1,2.3l2.3,4h-1.5l-1.6-3l-1,1.1v1.8H553.5z"/>
			<path class="st3" d="M515.5,85.9c0-3,1.7-4.6,3.9-4.6c2.1,0,3,1.1,3.4,2.8l-1.4,0.4c-0.3-1.2-0.9-1.8-2-1.8
				c-1.5,0-2.4,1.2-2.4,3.2c0,2.1,0.9,3.3,2.4,3.3c1.2,0,1.8-0.6,2.1-1.9l1.4,0.3c-0.4,1.8-1.5,3-3.6,3
				C517.1,90.5,515.5,88.9,515.5,85.9z"/>
			<path class="st3" d="M524,88.8c0-1.4,1.2-2.3,4.1-2.6V86c0-0.6-0.3-0.9-1-0.9c-0.9,0-1.6,0.4-2.1,0.9l-0.7-0.9
				c0.7-0.6,1.8-1.2,3.1-1.2c1.7,0,2.3,0.8,2.3,2.3v2.6c0,0.8,0,1.2,0.2,1.6h-1.5c-0.1-0.3-0.1-0.5-0.1-0.8
				c-0.6,0.7-1.4,0.9-2.4,0.9C524.7,90.4,524,89.9,524,88.8z M528.1,88.6v-1.4c-1.8,0.2-2.7,0.7-2.7,1.4c0,0.5,0.3,0.8,0.9,0.8
				C527,89.3,527.6,89,528.1,88.6z"/>
			<path class="st3" d="M531.1,90.3V84h1.5v0.9c0.5-0.5,1.2-1,2.2-1c1.1,0,1.5,0.4,1.7,1c0.5-0.6,1.3-1,2.2-1c1.3,0,1.9,0.8,1.9,1.9
				v4.6h-1.5v-4.2c0-0.7-0.2-1-0.9-1c-0.6,0-1.1,0.3-1.6,0.8v4.4h-1.5v-4.2c0-0.7-0.2-1-0.9-1c-0.6,0-1.1,0.3-1.6,0.8v4.4H531.1z"/>
			<path class="st3" d="M542.2,92.7V84h1.5v0.8c0.4-0.5,1.1-1,2-1c1.5,0,2.5,1.1,2.5,3.3c0,2.2-1.1,3.3-2.7,3.3
				c-0.7,0-1.4-0.3-1.8-0.8v3.1H542.2z M546.8,87.2c0-1.3-0.6-2.1-1.5-2.1c-0.6,0-1.2,0.4-1.5,0.8v2.6c0.4,0.5,1,0.8,1.5,0.8
				C546.3,89.3,546.8,88.6,546.8,87.2z"/>
			<path class="st3" d="M549.5,88.5V84h1.5v4.2c0,0.7,0.3,1,0.9,1c0.6,0,1.2-0.3,1.7-0.8V84h1.5v6.4h-1.5v-0.9c-0.4,0.4-1.2,1-2.3,1
				C550.2,90.5,549.5,89.8,549.5,88.5z"/>
			<path class="st3" d="M556.3,89.5l0.8-0.9c0.5,0.4,1.2,0.8,2,0.8c0.8,0,1.3-0.2,1.3-0.7c0-0.5-0.6-0.7-1.4-0.9
				c-1.1-0.3-2.4-0.5-2.4-2c0-1.1,1-1.9,2.4-1.9c1.2,0,2,0.3,2.6,0.9l-0.7,1c-0.5-0.4-1.2-0.7-1.8-0.7c-0.8,0-1.1,0.3-1.1,0.6
				c0,0.5,0.6,0.7,1.4,0.8c1.1,0.2,2.4,0.5,2.4,2c0,1.3-1.2,2-2.7,2C557.9,90.5,556.9,90.1,556.3,89.5z"/>
			<path class="st3" d="M562.6,87.2c0-2.4,1.7-3.3,3-3.3c1.4,0,2.8,0.9,2.8,3.4v0.3h-4.4c0.1,1.2,0.8,1.7,1.7,1.7
				c0.8,0,1.3-0.3,1.8-0.7l0.8,0.8c-0.7,0.7-1.5,1.2-2.7,1.2C564.1,90.5,562.6,89.5,562.6,87.2z M567.1,86.5c-0.1-1-0.6-1.5-1.5-1.5
				c-0.7,0-1.4,0.4-1.5,1.5H567.1z"/>
			<path class="st3" d="M569.1,89.5l0.8-0.9c0.5,0.4,1.2,0.8,2,0.8c0.8,0,1.3-0.2,1.3-0.7c0-0.5-0.6-0.7-1.4-0.9
				c-1.1-0.3-2.4-0.5-2.4-2c0-1.1,1-1.9,2.4-1.9c1.2,0,2,0.3,2.6,0.9l-0.7,1c-0.5-0.4-1.2-0.7-1.8-0.7c-0.8,0-1.1,0.3-1.1,0.6
				c0,0.5,0.6,0.7,1.4,0.8c1.1,0.2,2.4,0.5,2.4,2c0,1.3-1.2,2-2.7,2C570.8,90.5,569.7,90.1,569.1,89.5z"/>
		</g>
	</g>
	</a>
</g>
<g id="mouseover_celebrate">
	<a xlink:href="/education/md/admissions/class-selection" style="text-decoration:none;">
	<rect x="375" class="st2" width="90" height="60"/>
	<rect x="375" y="60" class="st1" width="90" height="40"/>
	<g>
		<g>
			<path class="st3" d="M392.7,73.4c0-3,1.7-4.6,3.9-4.6c2.1,0,3,1.1,3.4,2.8l-1.4,0.4c-0.3-1.2-0.9-1.8-2-1.8
				c-1.5,0-2.4,1.2-2.4,3.2c0,2.1,0.9,3.3,2.4,3.3c1.2,0,1.8-0.6,2.1-1.9l1.4,0.3c-0.4,1.8-1.5,3-3.6,3
				C394.4,78,392.7,76.4,392.7,73.4z"/>
			<path class="st3" d="M401.1,74.7c0-2.4,1.7-3.3,3-3.3c1.4,0,2.8,0.9,2.8,3.4v0.3h-4.4c0.1,1.2,0.8,1.7,1.7,1.7
				c0.8,0,1.3-0.3,1.8-0.7l0.8,0.8c-0.7,0.7-1.5,1.2-2.7,1.2C402.6,78,401.1,77,401.1,74.7z M405.6,74c-0.1-1-0.6-1.5-1.5-1.5
				c-0.7,0-1.4,0.4-1.5,1.5H405.6z"/>
			<path class="st3" d="M408.3,77.8V69h1.5v8.9H408.3z"/>
			<path class="st3" d="M411.1,74.7c0-2.4,1.7-3.3,3-3.3c1.4,0,2.8,0.9,2.8,3.4v0.3h-4.4c0.1,1.2,0.8,1.7,1.7,1.7
				c0.8,0,1.3-0.3,1.8-0.7l0.8,0.8c-0.7,0.7-1.5,1.2-2.7,1.2C412.6,78,411.1,77,411.1,74.7z M415.6,74c-0.1-1-0.6-1.5-1.5-1.5
				c-0.7,0-1.4,0.4-1.5,1.5H415.6z"/>
			<path class="st3" d="M419.8,77.1v0.7h-1.5V69h1.5v3.3c0.4-0.5,1.1-1,2-1c1.5,0,2.5,1.1,2.5,3.3s-1.1,3.3-2.7,3.3
				C420.9,77.9,420.2,77.7,419.8,77.1z M422.8,74.7c0-1.3-0.6-2.1-1.5-2.1c-0.6,0-1.2,0.4-1.5,0.8V76c0.4,0.5,1,0.8,1.5,0.8
				C422.4,76.8,422.8,76.1,422.8,74.7z"/>
			<path class="st3" d="M425.6,77.8v-6.4h1.5v1h0c0.4-0.6,1.1-1.2,2.3-1.2h0.1l0,1.4c-0.1,0-0.3,0-0.4,0c-0.9,0-1.5,0.4-2,1.1v4
				H425.6z"/>
			<path class="st3" d="M429.9,76.3c0-1.4,1.2-2.3,4.1-2.6v-0.2c0-0.6-0.3-0.9-1-0.9c-0.9,0-1.6,0.4-2.1,0.9l-0.7-0.9
				c0.7-0.6,1.8-1.2,3.1-1.2c1.7,0,2.3,0.8,2.3,2.3v2.6c0,0.8,0,1.2,0.2,1.6h-1.5c-0.1-0.3-0.1-0.5-0.1-0.8
				c-0.6,0.7-1.4,0.9-2.4,0.9C430.7,77.9,429.9,77.4,429.9,76.3z M434.1,76.1v-1.4c-1.8,0.2-2.7,0.7-2.7,1.4c0,0.5,0.3,0.8,0.9,0.8
				C433,76.8,433.6,76.5,434.1,76.1z"/>
			<path class="st3" d="M437.6,76.2v-3.5h-1.1v-1.2h1.1v-2.2h1.5v2.2h1.6v1.2h-1.6v3.2c0,0.7,0.2,1,0.9,1c0.2,0,0.5,0,0.6-0.1v1.2
				c-0.2,0-0.7,0.1-1.1,0.1C438,77.9,437.6,77.3,437.6,76.2z"/>
			<path class="st3" d="M441.5,74.7c0-2.4,1.7-3.3,3-3.3c1.4,0,2.8,0.9,2.8,3.4v0.3H443c0.1,1.2,0.8,1.7,1.7,1.7
				c0.8,0,1.3-0.3,1.8-0.7l0.8,0.8c-0.7,0.7-1.5,1.2-2.7,1.2C443,78,441.5,77,441.5,74.7z M446,74c-0.1-1-0.6-1.5-1.5-1.5
				c-0.7,0-1.4,0.4-1.5,1.5H446z"/>
			<path class="st3" d="M386.7,89.8l3.1-8.9h1.5l3.1,8.9H393l-0.7-2.1h-3.4l-0.7,2.1H386.7z M389.3,86.4h2.5l-1.2-3.6h0L389.3,86.4z
				"/>
			<path class="st3" d="M395,86.7c0-2.4,1.6-3.3,3.1-3.3c1.6,0,2.3,0.9,2.6,1.9l-1.2,0.4c-0.3-0.7-0.7-1.1-1.4-1.1
				c-0.8,0-1.5,0.6-1.5,2.1c0,1.4,0.6,2.1,1.5,2.1c0.7,0,1.1-0.2,1.5-1.1l1.2,0.4c-0.5,1-1.2,1.9-2.7,1.9C396.5,90,395,89,395,86.7z
				"/>
			<path class="st3" d="M401.5,86.7c0-2.4,1.6-3.3,3.1-3.3c1.6,0,2.3,0.9,2.6,1.9l-1.2,0.4c-0.3-0.7-0.7-1.1-1.4-1.1
				c-0.8,0-1.5,0.6-1.5,2.1c0,1.4,0.6,2.1,1.5,2.1c0.7,0,1.1-0.2,1.5-1.1l1.2,0.4c-0.5,1-1.2,1.9-2.7,1.9
				C403,90,401.5,89,401.5,86.7z"/>
			<path class="st3" d="M407.9,86.7c0-2.4,1.7-3.3,3-3.3c1.4,0,2.8,0.9,2.8,3.4v0.3h-4.4c0.1,1.2,0.8,1.7,1.7,1.7
				c0.8,0,1.3-0.3,1.8-0.7l0.8,0.8c-0.7,0.7-1.5,1.2-2.7,1.2C409.4,90,407.9,89,407.9,86.7z M412.4,86c-0.1-1-0.6-1.5-1.5-1.5
				c-0.7,0-1.4,0.4-1.5,1.5H412.4z"/>
			<path class="st3" d="M415,92.2v-8.8h1.5v0.8c0.4-0.5,1.1-1,2-1c1.5,0,2.5,1.1,2.5,3.3s-1.1,3.3-2.7,3.3c-0.7,0-1.4-0.3-1.8-0.8
				v3.1H415z M419.6,86.7c0-1.3-0.6-2.1-1.5-2.1c-0.6,0-1.2,0.4-1.5,0.8V88c0.4,0.5,1,0.8,1.5,0.8C419.1,88.8,419.6,88.1,419.6,86.7
				z"/>
			<path class="st3" d="M422.9,88.2v-3.5h-1.1v-1.2h1.1v-2.2h1.5v2.2h1.6v1.2h-1.6v3.2c0,0.7,0.2,1,0.9,1c0.2,0,0.5,0,0.6-0.1v1.2
				c-0.2,0-0.7,0.1-1.1,0.1C423.2,89.9,422.9,89.3,422.9,88.2z"/>
			<path class="st3" d="M426.8,88.3c0-1.4,1.2-2.3,4.2-2.6v-0.2c0-0.6-0.3-0.9-1-0.9c-0.9,0-1.6,0.4-2.1,0.9l-0.7-0.9
				c0.7-0.6,1.8-1.2,3.1-1.2c1.7,0,2.3,0.8,2.3,2.3v2.6c0,0.8,0,1.2,0.2,1.6h-1.5c-0.1-0.3-0.1-0.5-0.1-0.8
				c-0.6,0.7-1.4,0.9-2.4,0.9C427.5,89.9,426.8,89.4,426.8,88.3z M430.9,88.1v-1.4c-1.8,0.2-2.7,0.7-2.7,1.4c0,0.5,0.3,0.8,0.9,0.8
				C429.9,88.8,430.4,88.5,430.9,88.1z"/>
			<path class="st3" d="M434,89.8v-6.4h1.5v1c0.5-0.6,1.2-1.1,2.3-1.1c1.2,0,1.9,0.6,1.9,1.9v4.6h-1.5v-4.2c0-0.7-0.3-1.1-1-1.1
				c-0.6,0-1.2,0.3-1.7,0.8v4.4H434z"/>
			<path class="st3" d="M440.8,86.7c0-2.4,1.6-3.3,3.1-3.3c1.6,0,2.3,0.9,2.6,1.9l-1.2,0.4c-0.3-0.7-0.7-1.1-1.4-1.1
				c-0.8,0-1.5,0.6-1.5,2.1c0,1.4,0.6,2.1,1.5,2.1c0.7,0,1.1-0.2,1.5-1.1l1.2,0.4c-0.5,1-1.2,1.9-2.7,1.9
				C442.3,90,440.8,89,440.8,86.7z"/>
			<path class="st3" d="M447.3,86.7c0-2.4,1.7-3.3,3-3.3c1.4,0,2.8,0.9,2.8,3.4v0.3h-4.4c0.1,1.2,0.8,1.7,1.7,1.7
				c0.8,0,1.3-0.3,1.8-0.7l0.8,0.8c-0.7,0.7-1.5,1.2-2.7,1.2C448.7,90,447.3,89,447.3,86.7z M451.7,86c-0.1-1-0.6-1.5-1.5-1.5
				c-0.7,0-1.4,0.4-1.5,1.5H451.7z"/>
		</g>
	</g>
	</a>
</g>
<g id="mouseover_interview">
	<a xlink:href="/education/md/admissions/interview" style="text-decoration:none;">
	<rect x="250" class="st2" width="90" height="60"/>
	<rect x="250" y="60" class="st1" width="90" height="40"/>
	<g>
		<g>
			<path class="st3" d="M269.6,84.8V76h1.5v8.9H269.6z"/>
			<path class="st3" d="M273.1,84.8v-6.4h1.5v1c0.5-0.6,1.2-1.1,2.3-1.1c1.2,0,1.9,0.6,1.9,1.9v4.6h-1.5v-4.2c0-0.7-0.3-1.1-1-1.1
				c-0.6,0-1.2,0.3-1.7,0.8v4.4H273.1z"/>
			<path class="st3" d="M280.8,83.2v-3.5h-1.1v-1.2h1.1v-2.2h1.5v2.2h1.6v1.2h-1.6v3.2c0,0.7,0.2,1,0.9,1c0.2,0,0.5,0,0.6-0.1v1.2
				c-0.2,0-0.7,0.1-1.1,0.1C281.1,84.9,280.8,84.3,280.8,83.2z"/>
			<path class="st3" d="M284.7,81.7c0-2.4,1.7-3.3,3-3.3c1.4,0,2.8,0.9,2.8,3.4v0.3h-4.4c0.1,1.2,0.8,1.7,1.7,1.7
				c0.8,0,1.3-0.3,1.8-0.7l0.8,0.8c-0.7,0.7-1.5,1.2-2.7,1.2C286.2,85,284.7,84,284.7,81.7z M289.2,81c-0.1-1-0.6-1.5-1.5-1.5
				c-0.7,0-1.4,0.4-1.5,1.5H289.2z"/>
			<path class="st3" d="M291.8,84.8v-6.4h1.5v1h0c0.4-0.6,1.1-1.2,2.3-1.2h0.1l0,1.4c-0.1,0-0.3,0-0.4,0c-0.9,0-1.5,0.4-2,1.1v4
				H291.8z"/>
			<path class="st3" d="M298.5,84.9l-2.3-6.4h1.5l1.6,4.7h0l1.5-4.7h1.4l-2.3,6.4H298.5z"/>
			<path class="st3" d="M303.3,77.4v-1.3h1.5v1.3H303.3z M303.3,84.8v-6.4h1.5v6.4H303.3z"/>
			<path class="st3" d="M306.1,81.7c0-2.4,1.7-3.3,3-3.3c1.4,0,2.8,0.9,2.8,3.4v0.3h-4.4c0.1,1.2,0.8,1.7,1.7,1.7
				c0.8,0,1.3-0.3,1.8-0.7l0.8,0.8c-0.7,0.7-1.5,1.2-2.7,1.2C307.6,85,306.1,84,306.1,81.7z M310.6,81c-0.1-1-0.6-1.5-1.5-1.5
				c-0.7,0-1.4,0.4-1.5,1.5H310.6z"/>
			<path class="st3" d="M314.4,84.8l-1.9-6.4h1.5l0.7,2.6c0.2,0.7,0.3,1.2,0.5,2h0c0.2-0.9,0.3-1.3,0.5-2.1l0.7-2.6h1.2l0.7,2.7
				c0.2,0.7,0.3,1.2,0.5,2h0c0.2-0.8,0.3-1.3,0.5-2l0.7-2.7h1.3l-1.9,6.4h-1.4l-1.2-4.4h0l-1.2,4.4H314.4z"/>
		</g>
	</g>
	</a>
</g>
<g id="mouseover_submit">
	<a xlink:href="/education/md/admissions/application-materials/" style="text-decoration:none;">
	<rect x="125" class="st2" width="90" height="60"/>
	<rect x="125" y="60" class="st1" width="90" height="40"/>
	<g>
		<g>
			<path class="st3" d="M149.6,75.8l1.2-0.6c0.5,1,1.3,1.5,2.4,1.5c1.1,0,1.8-0.3,1.8-1.2c0-0.8-0.6-1.1-2-1.6
				c-1.7-0.5-3.1-1-3.1-2.7c0-1.5,1.2-2.5,3-2.5c1.8,0,2.8,0.9,3.3,1.9l-1.1,0.8c-0.5-0.9-1.3-1.3-2.2-1.3c-1,0-1.5,0.4-1.5,1
				c0,0.8,0.6,1.1,2.1,1.5c1.7,0.5,3,1,3,2.7c0,1.5-1.2,2.6-3.3,2.6C151.4,78,150.2,77.1,149.6,75.8z"/>
			<path class="st3" d="M157.9,76v-4.6h1.5v4.2c0,0.7,0.3,1,0.9,1c0.6,0,1.2-0.3,1.7-0.8v-4.4h1.5v6.4h-1.5V77c-0.4,0.4-1.2,1-2.3,1
				C158.6,78,157.9,77.3,157.9,76z"/>
			<path class="st3" d="M166.7,77.1v0.7h-1.5V69h1.5v3.3c0.4-0.5,1.1-1,2-1c1.5,0,2.5,1.1,2.5,3.3s-1.1,3.3-2.7,3.3
				C167.8,77.9,167.2,77.7,166.7,77.1z M169.8,74.7c0-1.3-0.6-2.1-1.5-2.1c-0.6,0-1.2,0.4-1.5,0.8V76c0.4,0.5,1,0.8,1.5,0.8
				C169.3,76.8,169.8,76.1,169.8,74.7z"/>
			<path class="st3" d="M172.6,77.8v-6.4h1.5v0.9c0.5-0.5,1.2-1,2.2-1c1.1,0,1.5,0.4,1.7,1c0.5-0.6,1.3-1,2.2-1
				c1.3,0,1.9,0.8,1.9,1.9v4.6h-1.5v-4.2c0-0.7-0.2-1-0.9-1c-0.6,0-1.1,0.3-1.6,0.8v4.4h-1.5v-4.2c0-0.7-0.2-1-0.9-1
				c-0.6,0-1.1,0.3-1.6,0.8v4.4H172.6z"/>
			<path class="st3" d="M183.7,70.4v-1.3h1.5v1.3H183.7z M183.7,77.8v-6.4h1.5v6.4H183.7z"/>
			<path class="st3" d="M187.4,76.2v-3.5h-1.1v-1.2h1.1v-2.2h1.5v2.2h1.6v1.2h-1.6v3.2c0,0.7,0.2,1,0.9,1c0.2,0,0.5,0,0.6-0.1v1.2
				c-0.2,0-0.7,0.1-1.1,0.1C187.8,77.9,187.4,77.3,187.4,76.2z"/>
			<path class="st3" d="M144.2,89.8V81h2l2.4,7h0l2.3-7h2v8.9h-1.5v-6.6h0c-0.1,0.6-0.3,1.2-0.5,1.8l-1.7,4.8h-1.3l-1.7-4.8
				c-0.2-0.6-0.3-1-0.5-1.9h0v6.7H144.2z"/>
			<path class="st3" d="M154.4,88.3c0-1.4,1.2-2.3,4.1-2.6v-0.2c0-0.6-0.3-0.9-1-0.9c-0.9,0-1.6,0.4-2.1,0.9l-0.7-0.9
				c0.7-0.6,1.8-1.2,3.1-1.2c1.7,0,2.3,0.8,2.3,2.3v2.6c0,0.8,0,1.2,0.2,1.6h-1.5c-0.1-0.3-0.1-0.5-0.1-0.8
				c-0.6,0.7-1.4,0.9-2.4,0.9C155.1,89.9,154.4,89.4,154.4,88.3z M158.5,88.1v-1.4c-1.8,0.2-2.7,0.7-2.7,1.4c0,0.5,0.3,0.8,0.9,0.8
				C157.4,88.8,158,88.5,158.5,88.1z"/>
			<path class="st3" d="M162,88.2v-3.5h-1.1v-1.2h1.1v-2.2h1.5v2.2h1.6v1.2h-1.6v3.2c0,0.7,0.2,1,0.9,1c0.2,0,0.5,0,0.6-0.1v1.2
				c-0.2,0-0.7,0.1-1.1,0.1C162.4,89.9,162,89.3,162,88.2z"/>
			<path class="st3" d="M166,86.7c0-2.4,1.7-3.3,3-3.3c1.4,0,2.8,0.9,2.8,3.4v0.3h-4.4c0.1,1.2,0.8,1.7,1.7,1.7
				c0.8,0,1.3-0.3,1.8-0.7l0.8,0.8c-0.7,0.7-1.5,1.2-2.7,1.2C167.4,90,166,89,166,86.7z M170.4,86c-0.1-1-0.6-1.5-1.5-1.5
				c-0.7,0-1.4,0.4-1.5,1.5H170.4z"/>
			<path class="st3" d="M173.1,89.8v-6.4h1.5v1h0c0.4-0.6,1.1-1.2,2.3-1.2h0.1l0,1.4c-0.1,0-0.3,0-0.4,0c-0.9,0-1.5,0.4-2,1.1v4
				H173.1z"/>
			<path class="st3" d="M178.1,82.4v-1.3h1.5v1.3H178.1z M178.1,89.8v-6.4h1.5v6.4H178.1z"/>
			<path class="st3" d="M180.9,88.3c0-1.4,1.2-2.3,4.1-2.6v-0.2c0-0.6-0.3-0.9-1-0.9c-0.9,0-1.6,0.4-2.1,0.9l-0.7-0.9
				c0.7-0.6,1.8-1.2,3.1-1.2c1.7,0,2.3,0.8,2.3,2.3v2.6c0,0.8,0,1.2,0.2,1.6h-1.5c-0.1-0.3-0.1-0.5-0.1-0.8
				c-0.6,0.7-1.4,0.9-2.4,0.9C181.7,89.9,180.9,89.4,180.9,88.3z M185,88.1v-1.4c-1.8,0.2-2.7,0.7-2.7,1.4c0,0.5,0.3,0.8,0.9,0.8
				C184,88.8,184.6,88.5,185,88.1z"/>
			<path class="st3" d="M188.1,89.8V81h1.5v8.9H188.1z"/>
			<path class="st3" d="M190.9,89l0.8-0.9c0.5,0.4,1.2,0.8,2,0.8c0.8,0,1.3-0.2,1.3-0.7c0-0.5-0.6-0.7-1.4-0.9
				c-1.1-0.3-2.4-0.5-2.4-2c0-1.1,1-1.9,2.4-1.9c1.2,0,2,0.3,2.6,0.9l-0.7,1c-0.5-0.4-1.2-0.7-1.8-0.7c-0.8,0-1.1,0.3-1.1,0.6
				c0,0.5,0.6,0.7,1.4,0.8c1.1,0.2,2.4,0.5,2.4,2c0,1.3-1.2,2-2.7,2C192.5,90,191.4,89.6,190.9,89z"/>
		</g>
	</g>
	</a>
</g>
<g id="mouseover_apply">
	<a xlink:href="/education/md/admissions/" style="text-decoration:none;">
	<rect y="60" class="st1" width="90" height="40"/>
	<rect class="st2" width="90" height="60"/>
	</a>
</g>
<g id="Fonts">
	<g>
		<g>
			<path class="st3" d="M28.9,84.8l3.1-8.9h1.5l3.1,8.9h-1.5l-0.7-2.1H31l-0.7,2.1H28.9z M31.5,81.4h2.5l-1.2-3.6h0L31.5,81.4z"/>
			<path class="st3" d="M37.8,87.2v-8.8h1.5v0.8c0.4-0.5,1.1-1,2-1c1.5,0,2.5,1.1,2.5,3.3s-1.1,3.3-2.7,3.3c-0.7,0-1.4-0.3-1.8-0.8
				v3.1H37.8z M42.3,81.7c0-1.3-0.6-2.1-1.5-2.1c-0.6,0-1.2,0.4-1.5,0.8V83c0.4,0.5,1,0.8,1.5,0.8C41.9,83.8,42.3,83.1,42.3,81.7z"
				/>
			<path class="st3" d="M45.1,87.2v-8.8h1.5v0.8c0.4-0.5,1.1-1,2-1c1.5,0,2.5,1.1,2.5,3.3s-1.1,3.3-2.7,3.3c-0.7,0-1.4-0.3-1.8-0.8
				v3.1H45.1z M49.6,81.7c0-1.3-0.6-2.1-1.5-2.1c-0.6,0-1.2,0.4-1.5,0.8V83c0.4,0.5,1,0.8,1.5,0.8C49.2,83.8,49.6,83.1,49.6,81.7z"
				/>
			<path class="st3" d="M52.5,84.8V76H54v8.9H52.5z"/>
			<path class="st3" d="M54.9,87.1l0.3-1.2c0.2,0,0.6,0.1,1.1,0.1c0.5,0,0.8-0.2,1-0.7l0.2-0.5L55,78.5h1.5l1.6,4.6h0l1.6-4.6h1.5
				l-2.7,7.1c-0.4,1.1-1,1.8-2.2,1.8C55.6,87.3,55.2,87.2,54.9,87.1z"/>
		</g>
	</g>
</g>
<g id="Icons">
	<g>
		<polyline class="st0" points="803,42.5 803,44 781,44 781,16 803,16 803,33.5 		"/>
		<line class="st0" x1="785" y1="24" x2="799" y2="24"/>
		<line class="st0" x1="785" y1="20" x2="799" y2="20"/>
		<line class="st0" x1="785" y1="28" x2="799" y2="28"/>
		<line class="st0" x1="785" y1="32" x2="799" y2="32"/>
		<polyline class="st0" points="797,36 801,40 809,32 		"/>
		<line class="st0" x1="785" y1="36" x2="793" y2="36"/>
		<line class="st0" x1="785" y1="40" x2="795" y2="40"/>
	</g>
	<g>
		<polyline class="st0" points="53,40 53,44 31,44 31,16 53,16 53,26 		"/>
		<polygon class="st0" points="61,27 49,39 47,39 47,37 59,25 		"/>
		<path class="st0" d="M62,41"/>
	</g>
	<rect x="154" y="19" class="st0" width="32" height="24"/>
	<polyline class="st0" points="154,19 170,33 186,19 	"/>
	<path class="st0" d="M421.1,12.8l3.4,10.5c0.1,0.5,0.6,0.8,1.1,0.8h11.1c1.1,0,1.5,1.4,0.7,2l-9,6.6c-0.4,0.3-0.5,0.8-0.4,1.2
		l3.4,10.6c0.3,1-0.8,1.9-1.7,1.2l-9-6.5c-0.4-0.3-0.9-0.3-1.3,0l-9,6.5c-0.9,0.6-2.1-0.2-1.7-1.2l3.4-10.6c0.1-0.5,0-1-0.4-1.2
		l-9-6.6c-0.9-0.6-0.4-2,0.7-2h11.1c0.5,0,0.9-0.3,1.1-0.8l3.4-10.5C419.3,11.7,420.7,11.7,421.1,12.8z"/>
	<g>
		<path class="st0" d="M314,34.9c0-4.4-4.9-8-11-8s-11,3.6-11,8s4.9,8,11,8c0.9,0,1.8-0.1,2.6-0.2L312,46l-2.2-4.8
			C312.3,39.7,314,37.4,314,34.9z"/>
		<path class="st0" d="M302.9,26.9c0.7-1.2,1.1-2.5,1.1-3.9c0-5.5-6.3-10-14-10s-14,4.5-14,10c0,2.9,1.7,5.5,4.5,7.3L278,36l6.7-3.7
			c1.6,0.5,3.4,0.7,5.3,0.7c0.8,0,1.6-0.1,2.4-0.2"/>
	</g>
	<g>
		<path class="st0" d="M665,33c-2.4,0.8-7.8,1.6-8.7,4.2c-0.6,1.8-1.1,4.3-1.3,6.1c9.9,2.3,20.2,2.2,30-0.3
			c-0.3-1.8-0.7-4.1-1.3-5.8c-0.9-2.6-6.4-3.4-8.7-4.2"/>
		<path class="st0" d="M665,27.6c0.8,2.7,2.7,4.7,5,4.7s4.2-1.9,5-4.7c1.6-1.9,2.1-4.1,0.9-5.3c0-0.4,0-0.8,0-1.2c0-3.3-2.7-6-6-6
			s-6,2.7-6,6c0,0.4,0,0.8,0,1.2C662.9,23.5,663.4,25.7,665,27.6z"/>
	</g>
	<g>
		<path class="st0" d="M545,13c-5.5,0-10,4.5-10,10c0,6.9,9.7,24.6,10,25c0,0,0,0,0,0c0.2-0.4,10-18.1,10-25
			C555,17.5,550.5,13,545,13z"/>
		<ellipse class="st0" cx="545" cy="23" rx="4.6" ry="4.6"/>
	</g>
</g>
</svg>
