<?xml version="1.0" encoding="utf-8"?>
<!-- Generator: Adobe Illustrator 20.1.0, SVG Export Plug-In . SVG Version: 6.00 Build 0)  -->
<!DOCTYPE svg PUBLIC "-//W3C//DTD SVG 1.1//EN" "http://www.w3.org/Graphics/SVG/1.1/DTD/svg11.dtd">
<svg version="1.1" id="Layer_1" xmlns="http://www.w3.org/2000/svg" xmlns:xlink="http://www.w3.org/1999/xlink" x="0px" y="0px"
	 viewBox="0 0 40 40" style="enable-background:new 0 0 40 40;" xml:space="preserve">
<style type="text/css">
	.st0{fill:#FFFFFF;}
	.st1{fill:#01426A;}
</style>
<circle class="st0" cx="20" cy="20" r="20"/>
<g>
	<path class="st1" d="M24.3,30h-8.7c-3.1,0-5.7-2.5-5.7-5.7v-8.7c0-3.1,2.5-5.7,5.7-5.7h8.7c3.1,0,5.7,2.5,5.7,5.7v8.7
		C30,27.5,27.5,30,24.3,30z M24.3,28.5c1.1,0,2.2-0.4,2.9-1.2s1.2-1.8,1.2-2.9v-8.7c0-1.1-0.4-2.2-1.2-2.9c-0.8-0.8-1.8-1.2-2.9-1.2
		h-8.7c-1.1,0-2.2,0.4-2.9,1.2c-0.8,0.8-1.2,1.8-1.2,2.9v8.7c0,1.1,0.4,2.2,1.2,2.9s1.8,1.2,2.9,1.2H24.3z"/>
	<path class="st1" d="M25.4,19.9c0,3-2.4,5.4-5.4,5.4s-5.4-2.4-5.4-5.4s2.4-5.4,5.4-5.4S25.4,17,25.4,19.9z M20,16.4
		c-1.9,0-3.5,1.6-3.5,3.5s1.6,3.5,3.5,3.5s3.5-1.6,3.5-3.5S21.9,16.4,20,16.4z"/>
	<circle class="st1" cx="25.5" cy="14.5" r="1.3"/>
</g>
</svg>
