<?xml version="1.0" encoding="utf-8"?>
<!-- Generator: Adobe Illustrator 20.1.0, SVG Export Plug-In . SVG Version: 6.00 Build 0)  -->
<!DOCTYPE svg PUBLIC "-//W3C//DTD SVG 1.1//EN" "http://www.w3.org/Graphics/SVG/1.1/DTD/svg11.dtd">
<svg version="1.1" id="Layer_1" xmlns="http://www.w3.org/2000/svg" xmlns:xlink="http://www.w3.org/1999/xlink" x="0px" y="0px"
	 viewBox="0 0 40 40" style="enable-background:new 0 0 40 40;" xml:space="preserve">
<style type="text/css">
	.st0{fill:#FFFFFF;}
	.st1{fill:#01426A;}
</style>
<circle class="st0" cx="20" cy="20" r="20"/>
<g>
	<path class="st1" d="M11.3,16H15v12h-3.7V16z M13.2,10c1.2,0,2.2,1,2.2,2.2c0,1.2-1,2.2-2.2,2.2c-1.2,0-2.2-1-2.2-2.2
		C11,11,12,10,13.2,10"/>
	<path class="st1" d="M17.4,16h3.6v1.6h0c0.5-0.9,1.7-1.9,3.5-1.9c3.8,0,4.5,2.5,4.5,5.7V28h-3.7v-5.8c0-1.4,0-3.2-1.9-3.2
		c-1.9,0-2.2,1.5-2.2,3.1V28h-3.7V16z"/>
</g>
</svg>
