<?xml version="1.0" encoding="utf-8"?>
<!-- Generator: Adobe Illustrator 20.1.0, SVG Export Plug-In . SVG Version: 6.00 Build 0)  -->
<!DOCTYPE svg PUBLIC "-//W3C//DTD SVG 1.1//EN" "http://www.w3.org/Graphics/SVG/1.1/DTD/svg11.dtd">
<svg version="1.1" id="Layer_1" xmlns="http://www.w3.org/2000/svg" xmlns:xlink="http://www.w3.org/1999/xlink" x="0px" y="0px"
	 viewBox="0 0 60 60" style="enable-background:new 0 0 60 60;" xml:space="preserve">
<style type="text/css">
	.st0{fill:none;}
	.st1{fill:none;stroke:#990000;stroke-width:2;stroke-linecap:round;stroke-linejoin:round;stroke-miterlimit:10;}
</style>
<rect class="st0" width="60" height="60"/>
<path class="st1" d="M56.5,46.8L41.2,21.9c-0.8-1.3-1.2-2.7-1.2-4.2V7h3c0.6,0,1-0.4,1-1V2c0-0.6-0.4-1-1-1H17c-0.6,0-1,0.4-1,1v4
	c0,0.6,0.4,1,1,1h3v10.7c0,1.5-0.4,2.9-1.2,4.2L3.5,46.8C0.2,52.1,4.1,59,10.3,59h39.4C55.9,59,59.8,52.1,56.5,46.8z"/>
<path class="st1" d="M43.7,33.7c-3.4-1-6.7-0.3-12.7,2.3c-7,3-11,1-15.5-1.1l-8.6,14C5.3,51.6,7.2,55,10.3,55h39.4
	c3.1,0,5-3.4,3.4-6.1L43.7,33.7z"/>
<path class="st1" d="M24,7v10.7c0,2.2-0.6,4.3-1.7,6.2L18,31"/>
</svg>
