<svg id="Layer_1" data-name="Layer 1" xmlns="http://www.w3.org/2000/svg" viewBox="0 0 973.45 245.99"><defs><style>.cls-1{fill:#fff;}</style></defs><title>innovate-logo</title><path class="cls-1" d="M0,145.42V2.7H31.25V145.42Z"/><path class="cls-1" d="M62.1,145.42V2.7H93.54l59.79,91h.39V2.7h28.93V145.42H153.72l-62.3-91.8H91v91.8Z"/><path class="cls-1" d="M212,145.42V2.7h31.44l59.79,91h.38V2.7h28.93V145.42H303.58l-62.29-91.8h-.39v91.8Z"/><path class="cls-1" d="M355.09,74.06C355.09,23.92,387.87,0,422.4,0c34.33,0,67.12,23.92,67.12,74.06s-32.79,74.06-67.12,74.06C387.87,148.12,355.09,124.21,355.09,74.06Zm103.18,0c0-29.89-13.88-48-35.87-48-22.18,0-35.88,18.13-35.88,48s13.7,48.8,35.88,48.8C444.39,122.86,458.27,104,458.27,74.06Z"/><path class="cls-1" d="M542.37,146,493.19,2.7H525l32.6,102H558l33.76-102h29.5L572.07,146Z"/><path class="cls-1" d="M616.24,145.42,666.78,2.12h29.89l50.53,143.3H715.38L704.77,113.6h-48.6l-11,31.82Zm47.64-54.58h33.56l-16.39-48.6h-.39Z"/><path class="cls-1" d="M779.8,145.42V28.93H737.37V2.7h116.5V28.93H811.24V145.42Z"/><path class="cls-1" d="M872.77,145.42V2.7H970V28.93H904.21V59.6h47.64V84.48H904.21V120h69.24v25.45Z"/><path class="cls-1" d="M0,236.57V169.35H15l18,53.32h.18L50.6,169.35H65.87v67.22h-11V186.43h-.18a135.3,135.3,0,0,1-4,13.71L37.61,236.57H27.53l-13-36.43A113.2,113.2,0,0,1,10.45,186h-.18v50.6Z"/><path class="cls-1" d="M81.13,236.57V169.35h43.42v10.53H92.48V196.6H116v10.09H92.48v19.53h33.89v10.35Z"/><path class="cls-1" d="M137.54,236.57V169.35h19.17c21.07,0,34.88,9.81,34.88,33.34,0,24-14.08,33.88-34.88,33.88ZM148.9,226.4h8.81c15.35,0,22.53-6.72,22.53-23.71,0-16.17-7.27-22.81-22.71-22.81H148.9Z"/><path class="cls-1" d="M204.4,236.57V169.35h11.45v67.22Z"/><path class="cls-1" d="M228.57,202.78c0-22.53,12.63-34.71,29.52-34.71,15.63,0,23.08,8.64,26.08,20.9l-10.81,3.09c-2.55-8.9-6.45-13.45-15.36-13.45-11.35,0-18,8.82-18,24.08,0,16,6.82,24.8,18.17,24.8,8.73,0,13.63-4.36,16.18-14.45l10.81,2.46c-3.27,13.35-11.54,22.35-27.08,22.35C240.83,237.85,228.57,226,228.57,202.78Z"/><path class="cls-1" d="M288.89,236.57l23.8-67.5h11.18l23.8,67.5H336l-5.45-16H305.06l-5.54,16Zm19.62-26h18.72l-9.18-27.25h-.18Z"/><path class="cls-1" d="M357.57,236.57V169.35h11.35v56.87h31v10.35Z"/><path class="cls-1" d="M457.8,236.69V169.25h43.56v10.57H469.19v16.77H492.8v10.12H469.19V226.3h34v10.39Z"/><path class="cls-1" d="M514.39,236.69V169.25h19.23c21.15,0,35,9.84,35,33.45,0,24.06-14.13,34-35,34Zm11.4-10.2h8.84c15.4,0,22.6-6.75,22.6-23.79,0-16.22-7.29-22.88-22.79-22.88h-8.65Z"/><path class="cls-1" d="M579.37,212.09V169.25h11.4v41.83c0,10.3,4.46,16.41,14.85,16.41s14.77-5.93,14.77-16.32V169.25H631.6V212c0,15.31-8.66,25.79-26.07,25.79C586.94,237.79,579.37,227.4,579.37,212.09Z"/><path class="cls-1" d="M642.26,202.79c0-22.6,12.67-34.82,29.62-34.82,15.67,0,23.15,8.66,26.16,21L687.19,192c-2.55-8.94-6.47-13.49-15.4-13.49-11.39,0-18,8.84-18,24.15,0,16,6.84,24.88,18.23,24.88,8.75,0,13.67-4.38,16.22-14.49L699,215.55C695.76,229,687.46,238,671.88,238,654.56,238,642.26,226,642.26,202.79Z"/><path class="cls-1" d="M702.77,236.69,726.65,169h11.21l23.88,67.71H750.08l-5.47-16H719l-5.56,16Zm19.69-26.06h18.77L732,183.29h-.18Z"/><path class="cls-1" d="M779.06,236.69V179.82H758.28V169.25h53v10.57H790.45v56.87Z"/><path class="cls-1" d="M822.07,236.69V169.25h11.48v67.44Z"/><path class="cls-1" d="M846.31,203c0-22.69,13.4-35,30.54-35s30.34,12.31,30.34,35-13.3,35-30.34,35S846.31,225.67,846.31,203Zm49.4,0c0-15.86-7.56-24.51-18.86-24.51-11.49,0-19.05,8.65-19.05,24.51s7.56,24.7,19.05,24.7C888.15,227.67,895.71,218.83,895.71,203Z"/><path class="cls-1" d="M919.22,236.69V169.25H930.8l31.9,48.12h.18V169.25h10.57v67.44H963.06L930,187.57h-.18v49.12Z"/></svg>