<svg xmlns="http://www.w3.org/2000/svg" xmlns:xlink="http://www.w3.org/1999/xlink" viewBox="0 0 155.28 30"><defs><style>.a{fill:none;}.b{clip-path:url(#a);}.c{fill:#fff;}</style><clipPath id="a" transform="translate(0)"><rect class="a" width="155.28" height="30"/></clipPath></defs><title>Medicine-IU-Logo</title><g class="b"><path class="c" d="M31.21,16.73l1-.46a2.61,2.61,0,0,0,2.4,1.85c1.2,0,1.92-.65,1.92-1.64,0-1.19-1-1.7-2.1-2.22-1.3-.62-2.76-1.27-2.76-3.14a2.58,2.58,0,0,1,2.77-2.54,3.19,3.19,0,0,1,3,2.15l-1,.48A2.25,2.25,0,0,0,34.42,9.6a1.47,1.47,0,0,0-1.62,1.48c0,1.19,1,1.7,2.06,2.22,1.31.62,2.79,1.28,2.79,3.16a2.77,2.77,0,0,1-3,2.69,3.52,3.52,0,0,1-3.39-2.41" transform="translate(0)"/><path class="c" d="M38.65,13.85c0-3.41,1.45-5.27,3.64-5.27,1.9,0,2.8,1.34,3.16,3.23L44.37,12c-.32-1.55-.9-2.36-2.11-2.36-1.57,0-2.46,1.57-2.46,4.19s.88,4.29,2.48,4.29c1.2,0,1.85-.77,2.21-2.48l1.06.18c-.4,2-1.39,3.34-3.28,3.34-2.24,0-3.63-1.81-3.63-5.31" transform="translate(0)"/><polygon class="c" points="46.86 8.77 48.02 8.77 48.02 13.06 52.16 13.06 52.16 8.77 53.31 8.77 53.31 18.98 52.16 18.98 52.16 14.13 48.02 14.13 48.02 18.98 46.86 18.98 46.86 8.77"/><path class="c" d="M54.79,13.88c0-3.43,1.56-5.3,3.7-5.3s3.68,1.86,3.68,5.3-1.56,5.3-3.68,5.3-3.7-1.86-3.7-5.3m6.21,0c0-2.7-1-4.24-2.51-4.24S56,11.17,56,13.88s1,4.25,2.54,4.25S61,16.58,61,13.88" transform="translate(0)"/><path class="c" d="M63.27,13.88c0-3.43,1.56-5.3,3.7-5.3s3.68,1.86,3.68,5.3-1.56,5.3-3.68,5.3-3.7-1.86-3.7-5.3m6.21,0c0-2.7-1-4.24-2.51-4.24s-2.54,1.53-2.54,4.24,1,4.25,2.54,4.25,2.51-1.55,2.51-4.25" transform="translate(0)"/><polygon class="c" points="72.13 8.77 73.29 8.77 73.29 17.93 77.33 17.93 77.33 18.98 72.13 18.98 72.13 8.77"/><path class="c" d="M81.14,13.88c0-3.43,1.56-5.3,3.7-5.3s3.68,1.86,3.68,5.3-1.56,5.3-3.68,5.3-3.7-1.86-3.7-5.3m6.21,0c0-2.7-1-4.24-2.51-4.24s-2.54,1.53-2.54,4.24,1,4.25,2.54,4.25,2.51-1.55,2.51-4.25" transform="translate(0)"/><polygon class="c" points="90.01 8.77 95.15 8.77 95.15 9.84 91.17 9.84 91.17 13.13 94.08 13.13 94.08 14.18 91.17 14.18 91.17 18.98 90.01 18.98 90.01 8.77"/><path class="c" d="M99.14,8.77h2.68l1.79,7.3h0l1.68-7.3H108V19h-2V11.81h0a20.08,20.08,0,0,1-.52,2.51L104.27,19h-1.56l-1.19-4.66a24.5,24.5,0,0,1-.52-2.57h0V19H99.14Z" transform="translate(0)"/><polygon class="c" points="109.53 8.77 115.38 8.77 115.38 10.54 111.63 10.54 111.63 12.84 114.33 12.84 114.33 14.51 111.63 14.51 111.63 17.26 115.57 17.26 115.57 18.98 109.53 18.98 109.53 8.77"/><path class="c" d="M116.49,8.77h2.68c2.74,0,4.67,1.13,4.67,5.08s-2,5.13-4.67,5.13h-2.68Zm2.87,8.46c1.77,0,2.39-.91,2.39-3.38s-.62-3.31-2.4-3.31h-.76v6.69Z" transform="translate(0)"/><rect class="c" x="125" y="8.77" width="2.1" height="10.21"/><path class="c" d="M128.27,13.86c0-3.64,1.64-5.28,4-5.28s3.17,1.38,3.47,3.52l-2,.34c-.24-1.39-.62-2.07-1.57-2.07-1.21,0-1.79,1.23-1.79,3.49s.59,3.57,1.82,3.57c1,0,1.39-.63,1.65-2.21l2,.32c-.37,2.06-1.34,3.61-3.64,3.61s-3.92-1.61-3.92-5.3" transform="translate(0)"/><rect class="c" x="136.84" y="8.77" width="2.1" height="10.21"/><path class="c" d="M140.45,8.77h2.17L145,13.35c.33.65.5,1,.83,1.75h0V8.77h1.9V19h-1.95l-2.65-5c-.29-.55-.44-.84-.74-1.52h0V19h-1.9Z" transform="translate(0)"/><polygon class="c" points="149.24 8.77 155.09 8.77 155.09 10.54 151.34 10.54 151.34 12.84 154.04 12.84 154.04 14.51 151.34 14.51 151.34 17.26 155.28 17.26 155.28 18.98 149.24 18.98 149.24 8.77"/><path class="c" d="M0,30H25.65V0H0ZM21.18,8.84H19.95V19.09l-2,2H14.5V23.5h1.23v2H9.94v-2h1.23V21.14H7.7l-2-2V8.84H4.46V7.26H9.92V8.84H8.82v8.85h2.35V6H9.93V4.45h5.8V6H14.5V17.69h2.33V8.84h-1.1V7.26h5.46Z" transform="translate(0)"/></g></svg>