<svg xmlns="http://www.w3.org/2000/svg" viewBox="0 0 1920 2160"><defs><style>.cls-1{fill:#900;}</style></defs><title>location</title><g id="Layer_2" data-name="Layer 2"><path class="cls-1" d="M960.71,489.6c-144.22,0-261.56,117.34-261.56,261.56s117.34,261.56,261.56,261.56,261.56-117.34,261.56-261.56S1104.93,489.6,960.71,489.6Zm0,450.8c-104.35,0-189.24-84.89-189.24-189.24s84.89-189.24,189.24-189.24,189.24,84.89,189.24,189.24S1065.05,940.4,960.71,940.4Z"/><path class="cls-1" d="M1517.58,750c0-149.07-58-289.21-163.46-394.62S1108.57,191.88,959.5,191.88s-289.21,58-394.62,163.46S401.42,600.89,401.42,750a553.37,553.37,0,0,0,93.33,309.18l465,889.86,464.73-890.24A553.39,553.39,0,0,0,1517.58,750Zm-153.9,276L1262.1,1219.06,959.74,1793.74,657.12,1219.2,555.36,1026l-36.77-72.32A482.85,482.85,0,0,1,473.75,750c0-267.85,217.91-485.75,485.75-485.75S1445.25,482.11,1445.25,750a482.85,482.85,0,0,1-44.84,203.7Z"/></g></svg>