<?xml version="1.0" encoding="utf-8"?>
<!-- Generator: Adobe Illustrator 20.1.0, SVG Export Plug-In . SVG Version: 6.00 Build 0)  -->
<!DOCTYPE svg PUBLIC "-//W3C//DTD SVG 1.1//EN" "http://www.w3.org/Graphics/SVG/1.1/DTD/svg11.dtd">
<svg version="1.1" xmlns="http://www.w3.org/2000/svg" xmlns:xlink="http://www.w3.org/1999/xlink" x="0px" y="0px"
	 viewBox="0 0 840 100" style="enable-background:new 0 0 840 100;" xml:space="preserve">
<style type="text/css">
	.st0{fill:none;stroke:#990000;stroke-width:2;stroke-linecap:round;stroke-linejoin:round;stroke-miterlimit:10;}
	.st1{fill:#990000;}
	.st2{fill:#EEEDEB;}
	.st3{fill:#FFFFFF;}
	.st4{font-family:'BentonSans-Medium';}
	.st5{font-size:12px;}
</style>
<g id="Arrows">
	<path class="st0" d="M64,43"/>
	<polygon class="st1" points="106,74 112,80 106,86 104,84 108,80 104,76 	"/>
	<polygon class="st1" points="231,74 237,80 231,86 229,84 233,80 229,76 	"/>
	<polygon class="st1" points="356,74 362,80 356,86 354,84 358,80 354,76 	"/>
	<polygon class="st1" points="481,74 487,80 481,86 479,84 483,80 479,76 	"/>
	<polygon class="st1" points="606,74 612,80 606,86 604,84 608,80 604,76 	"/>
	<polygon class="st1" points="731,74 737,80 731,86 729,84 733,80 729,76 	"/>
</g>
<g id="mouseover_matriculate">
	<rect x="750" class="st2" width="90" height="60"/>
	<rect x="750" y="60" class="st1" width="90" height="40"/>
	<g>
		<text transform="matrix(1 0 0 1 762.0186 84.8438)" class="st3 st4 st5">Matriculate</text>
	</g>
</g>
<g id="mouseover_attend">
	<rect x="625" class="st2" width="90" height="60"/>
	<rect x="625" y="60" class="st1" width="90" height="40"/>
	<g>
		<text transform="matrix(1 0 0 1 650.314 78.3438)"><tspan x="0" y="0" class="st3 st4 st5">Attend</tspan><tspan x="-13.1" y="12" class="st3 st4 st5">Orientation</tspan></text>
	</g>
</g>
<g id="mouseover_rank">
	<rect x="500" class="st2" width="90" height="60"/>
	<rect x="500" y="60" class="st1" width="90" height="40"/>
	<g>
		<text transform="matrix(1 0 0 1 530.4683 78.3438)"><tspan x="0" y="0" class="st3 st4 st5">Rank</tspan><tspan x="-15.6" y="12" class="st3 st4 st5">Campuses</tspan></text>
	</g>
</g>
<g id="mouseover_celebrate">
	<rect x="375" class="st2" width="90" height="60"/>
	<rect x="375" y="60" class="st1" width="90" height="40"/>
	<g>
		<text transform="matrix(1 0 0 1 391.9683 77.8433)"><tspan x="0" y="0" class="st3 st4 st5">Celebrate</tspan><tspan x="-5.8" y="12" class="st3 st4 st5">Acceptance</tspan></text>
	</g>
</g>
<g id="mouseover_interview">
	<rect x="250" class="st2" width="90" height="60"/>
	<rect x="250" y="60" class="st1" width="90" height="40"/>
	<g>
		<text transform="matrix(1 0 0 1 268.4922 84.8438)" class="st3 st4 st5">Interview</text>
	</g>
</g>
<g id="mouseover_submit">
	<rect x="125" class="st2" width="90" height="60"/>
	<rect x="125" y="60" class="st1" width="90" height="40"/>
	<g>
		<text transform="matrix(1 0 0 1 149.0781 77.8433)"><tspan x="0" y="0" class="st3 st4 st5">Submit</tspan><tspan x="-5.9" y="12" class="st3 st4 st5">Materials</tspan></text>
	</g>
</g>
<g id="mouseover_apply">
	<rect y="60" class="st1" width="90" height="40"/>
	<rect class="st2" width="90" height="60"/>
	<g>
		<text transform="matrix(1 0 0 1 28.5723 84.8443)" class="st3 st4 st5">Apply</text>
	</g>
</g>
<g id="Icons">
	<g>
		<polyline class="st0" points="803,42.5 803,44 781,44 781,16 803,16 803,33.5 		"/>
		<line class="st0" x1="785" y1="24" x2="799" y2="24"/>
		<line class="st0" x1="785" y1="20" x2="799" y2="20"/>
		<line class="st0" x1="785" y1="28" x2="799" y2="28"/>
		<line class="st0" x1="785" y1="32" x2="799" y2="32"/>
		<polyline class="st0" points="797,36 801,40 809,32 		"/>
		<line class="st0" x1="785" y1="36" x2="793" y2="36"/>
		<line class="st0" x1="785" y1="40" x2="795" y2="40"/>
	</g>
	<g>
		<polyline class="st0" points="53,40 53,44 31,44 31,16 53,16 53,26 		"/>
		<polygon class="st0" points="61,27 49,39 47,39 47,37 59,25 		"/>
		<path class="st0" d="M62,41"/>
	</g>
	<rect x="154" y="19" class="st0" width="32" height="24"/>
	<polyline class="st0" points="154,19 170,33 186,19 	"/>
	<path class="st0" d="M421.1,12.8l3.4,10.5c0.1,0.5,0.6,0.8,1.1,0.8h11.1c1.1,0,1.5,1.4,0.7,2l-9,6.6c-0.4,0.3-0.5,0.8-0.4,1.2
		l3.4,10.6c0.3,1-0.8,1.9-1.7,1.2l-9-6.5c-0.4-0.3-0.9-0.3-1.3,0l-9,6.5c-0.9,0.6-2.1-0.2-1.7-1.2l3.4-10.6c0.1-0.5,0-1-0.4-1.2
		l-9-6.6c-0.9-0.6-0.4-2,0.7-2h11.1c0.5,0,0.9-0.3,1.1-0.8l3.4-10.5C419.3,11.7,420.7,11.7,421.1,12.8z"/>
	<g>
		<path class="st0" d="M314,34.9c0-4.4-4.9-8-11-8s-11,3.6-11,8s4.9,8,11,8c0.9,0,1.8-0.1,2.6-0.2L312,46l-2.2-4.8
			C312.3,39.7,314,37.4,314,34.9z"/>
		<path class="st0" d="M302.9,26.9c0.7-1.2,1.1-2.5,1.1-3.9c0-5.5-6.3-10-14-10s-14,4.5-14,10c0,2.9,1.7,5.5,4.5,7.3L278,36l6.7-3.7
			c1.6,0.5,3.4,0.7,5.3,0.7c0.8,0,1.6-0.1,2.4-0.2"/>
	</g>
	<g>
		<path class="st0" d="M665,33c-2.4,0.8-7.8,1.6-8.7,4.2c-0.6,1.8-1.1,4.3-1.3,6.1c9.9,2.3,20.2,2.2,30-0.3
			c-0.3-1.8-0.7-4.1-1.3-5.8c-0.9-2.6-6.4-3.4-8.7-4.2"/>
		<path class="st0" d="M665,27.6c0.8,2.7,2.7,4.7,5,4.7s4.2-1.9,5-4.7c1.6-1.9,2.1-4.1,0.9-5.3c0-0.4,0-0.8,0-1.2c0-3.3-2.7-6-6-6
			s-6,2.7-6,6c0,0.4,0,0.8,0,1.2C662.9,23.5,663.4,25.7,665,27.6z"/>
	</g>
	<g>
		<path class="st0" d="M545,13c-5.5,0-10,4.5-10,10c0,6.9,9.7,24.6,10,25c0,0,0,0,0,0c0.2-0.4,10-18.1,10-25
			C555,17.5,550.5,13,545,13z"/>
		<ellipse class="st0" cx="545" cy="23" rx="4.6" ry="4.6"/>
	</g>
</g>
</svg>
