<svg id="Layer_1" data-name="Layer 1" xmlns="http://www.w3.org/2000/svg" viewBox="0 0 1920 2160"><defs><style>.cls-1{fill:#900;}.cls-2{fill:none;stroke:#900;stroke-miterlimit:10;stroke-width:176.76px;}</style></defs><title>search-icon</title><path class="cls-1" d="M685.42,223.14l7.9,163.06a465.64,465.64,0,0,1,105.73,7c121.55,22.12,227.21,90.25,297.52,191.84s96.85,224.48,74.73,346c-19.09,104.87-71.66,197.08-152,266.66-78.18,67.67-177.65,107.68-280.1,112.64a465.67,465.67,0,0,1-105.74-7c-121.55-22.12-227.21-90.25-297.52-191.84S239,887,261.17,765.49c19.09-104.87,71.66-197.08,152-266.65,78.18-67.67,177.66-107.68,280.11-112.64l-7.89-163.06m0,0C401.28,236.91,153.68,444.39,100.56,736.26c-61.88,340,163.6,665.84,503.63,727.72a627.6,627.6,0,0,0,142.87,9.49c284.12-13.76,531.73-221.24,584.85-513.12,61.88-340-163.6-665.84-503.63-727.72a627.56,627.56,0,0,0-142.87-9.49Z"/><line class="cls-2" x1="1153" y1="1245.77" x2="1822.25" y2="1831.24"/></svg>