<svg version="1.1" xmlns="http://www.w3.org/2000/svg" xmlns:xlink="http://www.w3.org/1999/xlink" x="0px" y="0px"
	 viewBox="0 0 720 270" style="enable-background:new 0 0 720 270;" xml:space="preserve">
	<g id="diagram">
		<g id="alumni" data-url="http://medicine.iu.edu/give" data-tooltip="Many practicing physicians stay involved with the institution that trained them. Support at IU School of Medicine can include working as faculty, volunteering, donating or otherwise participating in the Alumni Association.">
			<rect x="630" y="135" class="st0" width="90" height="36"/>
			<rect x="630" y="81" class="st1" width="90" height="54"/>
			<g>
				<path class="st2" d="M682.1,116c0,0-2.6-5.6-2.8-5.9l-5.6-10.9c-0.4-0.7-3-0.8-3.5-0.8h-19.4c-2.6,0-2.3,2.9-2.3,5.3v2.2
					c0,2.5-0.4,4.4,2.3,4.4h11.7l4.3,7.8c0.1,0.1,0.1-0.1,0.2,0c0,0.1,0,0.1,0.1,0.2l2.6,4.9c0.3,0.6,1.2,0.7,2,0.2
					c0.8-0.5,1.2-1.4,0.8-2l-2.1-4.1l0.3-0.2l2.3,4.4c0.3,0.6,1.2,0.7,2,0.3c0.8-0.5,1.2-1.4,0.8-2l-2.3-4.4l0.4-0.2l2.2,4.3
					c0.3,0.6,1.2,0.7,2,0.3c0.8-0.5,1.2-1.4,0.8-2l-2.2-4.3l0.4-0.3l2.2,4.3c0.3,0.6,1.2,0.7,2,0.3C682.1,117.5,682.4,116.6,682.1,116
					z"/>
				<g>
					<path class="st3" d="M697.8,99.1l-14.6,3.5c-0.5,0-2.8-3-2.8-3c-0.5-1.1-3.7-2-5.9-1.1c0,0-0.1,0.2-0.2,0.2l-6.3,3.1
						c-0.8,0.4-1,1.4-0.6,2.3c0.4,0.9,1.4,1.3,2.2,0.9l6-3l6.4,12.9c0.5,1.1,1.8,0.5,2.4,0.2l2.3-1.3c0.2-0.1,0.5-1.3,0.6-1.4l10.5-1
						c2.2,0,4.2-2.2,4.2-5v-2.5C702,101.1,700,99.1,697.8,99.1z"/>
					<g>
						<path class="st3" d="M670.1,120.2c-0.5-0.9-1.2-1.5-1.5-1.3l-2.6,1.4c-0.3,0.2-0.2,1.1,0.3,2c0.5,0.9,1.2,1.5,1.5,1.3l2.6-1.4
							C670.8,121.9,670.6,121.1,670.1,120.2z"/>
						<path class="st3" d="M668,116.4c-0.5-0.9-1.2-1.5-1.5-1.3l-2.6,1.4c-0.3,0.2-0.2,1.1,0.3,2c0.5,0.9,1.2,1.5,1.5,1.3l2.6-1.4
							C668.7,118.2,668.5,117.3,668,116.4z"/>
						<path class="st3" d="M665.9,112.8c-0.5-0.9-1.2-1.5-1.5-1.3l-2.6,1.5c-0.3,0.2-0.2,1.1,0.3,2c0.5,0.9,1.2,1.5,1.5,1.3l2.6-1.5
							C666.6,114.5,666.4,113.7,665.9,112.8z"/>
						<path class="st3" d="M661.8,112.5l2.6-1.4c0.3-0.2,0.2-1.1-0.3-2c-0.5-0.9-1.2-1.5-1.5-1.3l-2.6,1.4c-0.3,0.2-0.2,1.1,0.3,2
							C660.8,112.1,661.5,112.7,661.8,112.5z"/>
					</g>
				</g>
			</g>
			<g>
				<text transform="matrix(1 0 0 1 636.7499 150.1462)"><tspan x="0" y="0" class="st11 st12 st13">School Alumni </tspan><tspan x="0" y="10.5" class="st11 st12 st13">and Supporter</tspan></text>
			</g>
		</g>
		<g id="cme" data-url="http://cme.medicine.iu.edu" data-title="Continuous" data-tooltip="Across all specialties, physicians must maintain or increase their professional knowledge and skills through seminars, training and conferences to retain a medical license.">
			<rect x="504" y="216" class="st0" width="90" height="36"/>
			<rect x="504" y="162" class="st1" width="90" height="54"/>
			<g>
				<path class="st3" d="M567.6,188.2l-16.3-16.2c-0.4-0.4-1-0.4-1.4,0l-5.7,5.6c-0.2,0.2-0.3,0.4-0.3,0.7c0,0.3,0.1,0.5,0.3,0.7
					l5,4.9H531c-0.6,0-1,0.5-1,1v8c0,0.6,0.4,1,1,1h18.2l-4.9,5c-0.2,0.2-0.3,0.5-0.3,0.7s0.1,0.5,0.3,0.7l5.7,5.5
					c0.2,0.2,0.4,0.3,0.7,0.3c0.3,0,0.5-0.1,0.7-0.3l16.3-16.2c0.3-0.3,0.4-0.7,0.2-1.1C567.9,188.5,567.8,188.4,567.6,188.2z
					 M550.7,203.8l-4.2-4.1l5.9-5.9c0.3-0.3,0.4-0.7,0.2-1.1c-0.2-0.4-0.5-0.6-0.9-0.6H532v-6h19.7c0.4,0,0.8-0.2,0.9-0.6
					c0.2-0.4,0.1-0.8-0.2-1.1l-6-5.9l4.2-4.2l14.9,14.9L550.7,203.8z"/>
			</g>
			<g>
				<text transform="matrix(1 0 0 1 510.7499 231.1458)"><tspan x="0" y="0" class="st11 st12 st13">Continuing </tspan><tspan x="0" y="10.5" class="st11 st12 st13">Medical Education</tspan></text>
			</g>
		</g>
		<g id="mbe" data-title="3-6 Months" data-tooltip="After residency, MD graduates must apply for a state license and pass the medical board examination to practice medicine.">
			<rect x="378.1" y="216" class="st0" width="90" height="36"/>
			<rect x="378" y="162" class="st1" width="90" height="54"/>
			<g>
				<path class="st2" d="M402.8,173.2v31.5h40.5v-31.5H402.8z"/>
				<rect x="405" y="175.5" class="st3" width="36" height="27"/>
				<polygon class="st1" points="423,195.8 423.4,196.2 423.9,195.9 424,196.5 424.6,196.4 424.5,197 425.1,197.1 424.8,197.6
					425.2,198 424.8,198.4 425.1,198.9 424.5,199 424.6,199.6 424,199.5 423.9,200.1 423.4,199.8 423,200.2 422.6,199.8 422.1,200.1
					422,199.5 421.4,199.6 421.5,199 420.9,198.9 421.2,198.4 420.8,198 421.2,197.6 420.9,197.1 421.5,197 421.4,196.4 422,196.5
					422.1,195.9 422.6,196.2"/>
				<line class="st4" x1="434.2" y1="191.2" x2="411.8" y2="191.2"/>
				<line class="st4" x1="434.2" y1="189" x2="411.8" y2="189"/>
				<line class="st4" x1="434.2" y1="186.8" x2="411.8" y2="186.8"/>
				<line class="st4" x1="434.2" y1="184.5" x2="411.8" y2="184.5"/>
			</g>
			<g>
				<text transform="matrix(1 0 0 1 384.8182 231.1458)"><tspan x="0" y="0" class="st11 st12 st13">Medical Board </tspan><tspan x="0" y="10.5" class="st11 st12 st13">Examination</tspan></text>
			</g>
		</g>
		<g id="residency" data-url="/education/gme/" data-title="3-7 Years" data-tooltip="After completing MD training, future physicians must complete a paid residency.">
			<rect x="252" y="216" class="st0" width="90" height="36"/>
			<rect x="252" y="162" class="st1" width="90" height="54"/>
			<g>
				<path class="st3" d="M279,179.2v24.1c0,0.8,0.6,1.4,1.4,1.4h33.1c0.8,0,1.4-0.6,1.4-1.4v-24.1c0-0.8-0.6-1.4-1.4-1.4h-33.1
					C279.6,177.8,279,178.4,279,179.2z M303.8,193.5h-4.5v4.5h-4.5v-4.5h-4.5V189h4.5v-4.5h4.5v4.5h4.5V193.5z"/>
				<polyline class="st2" points="288,180 288,173.2 306,173.2 306,180"/>
			</g>
			<g>
				<text transform="matrix(1 0 0 1 258.8177 236.3962)" class="st11 st12 st13">Residency</text>
			</g>
		</g>
		<g id="mdprogram" data-url="/education/md/" data-title="4 Years" data-tooltip="Medical school is typically four years of coursework and clinical experience.">
			<rect x="126" y="216" class="st0" width="90" height="36"/>
			<rect x="126" y="162" class="st1" width="90" height="54"/>
			<g>
				<path class="st5" d="M157.2,169.4c0,0,0,6.4,0,12.8c0,6.4,12.1,7.5,12.1,7.5s9.3-1.9,9.3-8.9c0-7,0-11.8,0-11.8"/>
				<path class="st5" d="M169.3,189.7c0,0-8.2,2.8-8.2,10.7c0,6.6,5.6,9.9,13.9,9.9c5.3,0,11.3-1.3,11.3-11.3c0-10-12.3-10.1-12.3-2.6"/>
				<circle class="st5" cx="173.9" cy="200.5" r="4"/>
				<circle class="st3" cx="178.6" cy="169.1" r="1.5"/>
				<circle class="st3" cx="157.2" cy="169.4" r="1.5"/>
				<circle class="st3" cx="173.9" cy="200.5" r="2.1"/>
			</g>
			<g>
				<text transform="matrix(1 0 0 1 132.8178 236.3962)" class="st11 st12 st13">MD Program</text>
			</g>
		</g>
		<g id="postdoctoral" data-url="http://postdoc.medicine.iu.edu/" data-title="2 Years" data-tooltip="Students conduct research as a paid employee for a university. Researchers can complete more than one post-doc program.">
			<rect x="252.1" y="54" class="st0" width="90" height="36"/>
			<rect x="252" class="st1" width="90" height="54"/>
			<g>
				<rect x="292.5" y="13.5" class="st3" width="4.5" height="24.8"/>
				<rect x="299.2" y="20.2" class="st3" width="4.5" height="18"/>
				<rect x="285.8" y="22.5" class="st3" width="4.5" height="15.8"/>
				<rect x="306" y="18" class="st3" width="4.5" height="20.2"/>
				<polygon class="st3" points="283.5,40.5 283.5,11.2 281.2,11.2 281.2,42.8 312.8,42.8 312.8,40.5"/>
			</g>
			<g>
				<text transform="matrix(1 0 0 1 258.8177 69.1458)"><tspan x="0" y="0" class="st11 st12 st13">Postdoctoral </tspan><tspan x="0" y="10.5" class="st11 st12 st13">Program</tspan></text>
			</g>
		</g>
		<g id="graduate" data-url="http://grad.medicine.iu.edu/" data-title="up to 5.5 years" data-tooltip="Students interested in medical research apply for a masters or PhD program in a field of basic science.">
			<rect x="126" y="54" class="st0" width="90" height="36"/>
			<rect x="126" class="st1" width="90" height="54"/>
			<path class="st3" d="M185.7,37.4l-10.9-15.6c-0.5-0.8-0.9-1.7-0.9-2.7v-5.6c0.7,0,1.2-0.5,1.2-1.2c0-0.7-0.5-1.2-1.2-1.2h-5.9
				c-0.7,0-1.2,0.5-1.2,1.2c0,0.7,0.5,1.2,1.2,1.2v5.6c0,0.9-0.3,1.9-0.9,2.7l-10.9,15.6c-1.6,2.3,0.1,5.5,3,5.5h23.4
				C185.6,42.9,187.3,39.7,185.7,37.4z M182.7,40h-23.5c-0.5,0-0.8-0.6-0.5-1l6.2-9.1H177l6.2,9.1C183.5,39.4,183.2,40,182.7,40z"/>
			<g>
				<text transform="matrix(1 0 0 1 132.8178 69.1458)"><tspan x="0" y="0" class="st11 st12 st13">Graduate </tspan><tspan x="0" y="10.5" class="st11 st12 st13">Degree</tspan></text>
			</g>
		</g>
		<g id="undergrad" data-url="/education/undergraduate-health-professions/" data-title="4 Years" data-tooltip="Future physicians, medical researchers and healthcare professionals complete an undergraduate education program that prepares them for career placement as health personnel or additional training for a career in medicine.">
			<rect y="135" class="st0" width="90" height="36"/>
			<rect y="81" class="st1" width="90" height="54"/>
			<g>
				<g>
					<path class="st3" d="M67.5,106.3l-22.3-12l-22.7,12l4.5,2.9v9.2c0,0.2-2,0.8-2,1.4v6.1h4v-6.1c0-0.7-1-1.2-1-1.4v-8.8l2,1.2v-1.4
						c10-4.3,21-4.3,30,0v1.4L67.5,106.3z"/>
					<path class="st3" d="M33,110.4v6.7c7-4.3,17-4.3,25,0v-6.7C50,107,40,107,33,110.4z"/>
				</g>
			</g>
			<g>
				<text transform="matrix(1 0 0 1 6.7499 150.1458)"><tspan x="0" y="0" class="st11 st12 st13">Undergraduate </tspan><tspan x="0" y="10.5" class="st11 st12 st13">Education</tspan></text>
			</g>
		</g>
		<g>
			<g>
				<line class="st2" x1="45" y1="202.5" x2="45" y2="203"/>
				<line class="st6" x1="45" y1="204.7" x2="45" y2="211.6"/>
				<line class="st2" x1="45" y1="212.5" x2="45" y2="213"/>
				<g>
					<path class="st3" d="M45,216c-0.5-1.4-1.4-3.2-2.4-4.3l2.4,0.9l2.4-0.9C46.4,212.8,45.5,214.6,45,216z"/>
				</g>
			</g>
		</g>
		<g>
			<g>
				<line class="st2" x1="360" y1="234" x2="360" y2="233.5"/>
				<line class="st7" x1="360" y1="231.5" x2="360" y2="127.5"/>
				<polyline class="st2" points="360,126.5 360,126 360.5,126"/>
				<line class="st6" x1="362.2" y1="126" x2="369.1" y2="126"/>
				<line class="st2" x1="370" y1="126" x2="370.5" y2="126"/>
				<g>
					<path class="st3" d="M373.5,126c-1.4,0.5-3.2,1.4-4.3,2.4l0.9-2.4l-0.9-2.4C370.3,124.6,372.1,125.5,373.5,126z"/>
				</g>
			</g>
		</g>
		<g>
			<g>
				<polyline class="st8" points="465.8,72 612,72 612,153 622.5,153"/>
				<g>
					<path class="st0" d="M625.5,153c-1.4,0.5-3.2,1.4-4.3,2.4l0.9-2.4l-0.9-2.4C622.3,151.6,624.1,152.5,625.5,153z"/>
				</g>
			</g>
		</g>
		<g>
			<g>
				<line class="st2" x1="486" y1="234" x2="486" y2="233.5"/>
				<line class="st7" x1="486" y1="231.5" x2="486" y2="127.5"/>
				<polyline class="st2" points="486,126.5 486,126 486.5,126"/>
				<line class="st6" x1="488.2" y1="126" x2="495.1" y2="126"/>
				<line class="st2" x1="496" y1="126" x2="496.5" y2="126"/>
				<g>
					<path class="st3" d="M499.5,126c-1.4,0.5-3.2,1.4-4.3,2.4l0.9-2.4l-0.9-2.4C496.3,124.6,498.1,125.5,499.5,126z"/>
				</g>
			</g>
		</g>
		<g>
			<g>
				<line class="st2" x1="236.2" y1="126" x2="236.8" y2="126"/>
				<line class="st9" x1="238.6" y1="126" x2="243.1" y2="126"/>
				<line class="st2" x1="244" y1="126" x2="244.5" y2="126"/>
				<g>
					<path class="st3" d="M247.5,126c-1.4,0.5-3.2,1.4-4.3,2.4l0.9-2.4l-0.9-2.4C244.3,124.6,246.1,125.5,247.5,126z"/>
				</g>
			</g>
		</g>
		<g>
			<g>
				<line class="st2" x1="234" y1="72" x2="234" y2="72.5"/>
				<line class="st10" x1="234" y1="74.5" x2="234" y2="220.5"/>
				<line class="st2" x1="234" y1="221.5" x2="234" y2="222"/>
				<g>
					<path class="st3" d="M234,225c-0.5-1.4-1.4-3.2-2.4-4.3l2.4,0.9l2.4-0.9C235.4,221.8,234.5,223.6,234,225z"/>
				</g>
			</g>
		</g>
		<rect x="378" class="st1" width="90" height="54"/>


		<g>
			<text transform="matrix(1 0 0 1 -3.051758e-05 183.7498)" class="st3 st14 st13">4 Years</text>
		</g>
		<g>
			<text transform="matrix(1 0 0 1 126 102.7498)" class="st3 st14 st13">up to 5.5 years</text>
		</g>
		<g>
			<text transform="matrix(1 0 0 1 252 102.7498)" class="st3 st14 st13">2 Years</text>
		</g>

		<rect x="378" y="54" class="st15" width="90" height="36"/>
		<g>
			<text transform="matrix(1 0 0 1 378.0005 102.7498)" class="st3 st14 st13">Continuous</text>
		</g>
		<g>
			<text transform="matrix(1 0 0 1 504.0005 264.7498)" class="st3 st14 st13">Continuous</text>
		</g>
		<g>
			<text transform="matrix(1 0 0 1 384.8182 69.1458)"><tspan x="0" y="0" class="st11 st12 st13">Professional </tspan><tspan x="0" y="10.5" class="st11 st12 st13">Practice</tspan></text>
		</g>

		<g>
			<text transform="matrix(1 0 0 1 126 264.7498)" class="st3 st14 st13">4 Years</text>
		</g>

		<g>
			<text transform="matrix(1 0 0 1 252 264.7498)" class="st3 st14 st13">3-7 Years</text>
		</g>

		<g>
			<text transform="matrix(1 0 0 1 378.0005 264.7498)" class="st3 st14 st13">3-6 Months</text>
		</g>

		<g>
			<g>
				<line class="st8" x1="213.8" y1="234" x2="244.5" y2="234"/>
				<g>
					<path class="st0" d="M247.5,234c-1.4,0.5-3.2,1.4-4.3,2.4l0.9-2.4l-0.9-2.4C244.3,232.6,246.1,233.5,247.5,234z"/>
				</g>
			</g>
		</g>
		<g>
			<g>
				<line class="st8" x1="339.8" y1="234" x2="370.5" y2="234"/>
				<g>
					<path class="st0" d="M373.5,234c-1.4,0.5-3.2,1.4-4.3,2.4l0.9-2.4l-0.9-2.4C370.3,232.6,372.1,233.5,373.5,234z"/>
				</g>
			</g>
		</g>
		<g>
			<g>
				<line class="st8" x1="465.8" y1="234" x2="496.5" y2="234"/>
				<g>
					<path class="st0" d="M499.5,234c-1.4,0.5-3.2,1.4-4.3,2.4l0.9-2.4l-0.9-2.4C496.3,232.6,498.1,233.5,499.5,234z"/>
				</g>
			</g>
		</g>
		<g>
			<g>
				<line class="st8" x1="213.8" y1="72" x2="244.5" y2="72"/>
				<g>
					<path class="st0" d="M247.5,72c-1.4,0.5-3.2,1.4-4.3,2.4l0.9-2.4l-0.9-2.4C244.3,70.6,246.1,71.5,247.5,72z"/>
				</g>
			</g>
		</g>
		<g>
			<g>
				<line class="st8" x1="339.8" y1="72" x2="370.5" y2="72"/>
				<g>
					<path class="st0" d="M373.5,72c-1.4,0.5-3.2,1.4-4.3,2.4l0.9-2.4l-0.9-2.4C370.3,70.6,372.1,71.5,373.5,72z"/>
				</g>
			</g>
		</g>
		<rect x="252" y="117" class="st3" width="90" height="18"/>
		<g>
			<text transform="matrix(1 0 0 1 258.7499 128.3956)" class="st11 st12 st13">Dual Degree</text>
		</g>
		<g>
			<text transform="matrix(1 0 0 1 252 147.7498)" class="st3 st14 st13">+2 Years</text>
		</g>
		<g>
			<g>
				<polyline class="st8" points="87.8,153 108,153 108,234 118.5,234"/>
				<g>
					<path class="st0" d="M121.5,234c-1.4,0.5-3.2,1.4-4.3,2.4l0.9-2.4l-0.9-2.4C118.3,232.6,120.1,233.5,121.5,234z"/>
				</g>
			</g>
		</g>
		<g>
			<g>
				<polyline class="st8" points="108,153 108,72 118.5,72"/>
				<g>
					<path class="st0" d="M121.5,72c-1.4,0.5-3.2,1.4-4.3,2.4l0.9-2.4l-0.9-2.4C118.3,70.6,120.1,71.5,121.5,72z"/>
				</g>
			</g>
		</g>

			<rect x="87.8" y="108" transform="matrix(6.123234e-17 -1 1 6.123234e-17 -6.75 222.75)" class="st16" width="40.5" height="13.5"/>
		<g>
			<path class="st0" d="M110.2,129.6h-5.2v-1.9c0-1.2,0.5-1.9,1.6-1.9c0.8,0,1.3,0.4,1.5,1.1l2.2-1.2v0.9l-2,1.2v0.9h2V129.6z
				 M107.4,128.7v-1c0-0.7-0.2-1.1-0.8-1.1c-0.6,0-0.8,0.4-0.8,1.1v1H107.4z"/>
			<path class="st0" d="M108.4,125.3c-1.4,0-1.9-1-1.9-1.8c0-0.8,0.5-1.6,2-1.6h0.2v2.5c0.7,0,1-0.4,1-1c0-0.5-0.2-0.8-0.4-1l0.4-0.5
				c0.4,0.4,0.7,0.9,0.7,1.6C110.3,124.4,109.8,125.3,108.4,125.3z M108,122.7c-0.6,0-0.9,0.3-0.9,0.8c0,0.4,0.2,0.8,0.9,0.9V122.7z"
				/>
			<path class="st0" d="M109.7,121.5l-0.5-0.5c0.2-0.3,0.4-0.7,0.4-1.2c0-0.5-0.1-0.7-0.4-0.7c-0.3,0-0.4,0.4-0.5,0.8
				c-0.1,0.6-0.3,1.4-1.2,1.4c-0.7,0-1.1-0.6-1.1-1.4c0-0.7,0.2-1.1,0.5-1.5l0.6,0.4c-0.2,0.3-0.4,0.7-0.4,1.1c0,0.5,0.2,0.6,0.4,0.6
				c0.3,0,0.4-0.4,0.5-0.8c0.1-0.6,0.3-1.4,1.2-1.4c0.8,0,1.1,0.7,1.1,1.6C110.3,120.5,110.1,121.1,109.7,121.5z"/>
			<path class="st0" d="M108.4,117.8c-1.4,0-1.9-1-1.9-1.8c0-0.8,0.5-1.6,2-1.6h0.2v2.5c0.7,0,1-0.4,1-1c0-0.5-0.2-0.8-0.4-1l0.4-0.5
				c0.4,0.4,0.7,0.9,0.7,1.6C110.3,116.9,109.8,117.8,108.4,117.8z M108,115.2c-0.6,0-0.9,0.3-0.9,0.8c0,0.4,0.2,0.8,0.9,0.9V115.2z"
				/>
			<path class="st0" d="M109.4,113.9c-0.8,0-1.3-0.7-1.5-2.4h-0.1c-0.4,0-0.5,0.2-0.5,0.6c0,0.5,0.3,0.9,0.5,1.3l-0.5,0.4
				c-0.4-0.4-0.7-1-0.7-1.8c0-1,0.5-1.3,1.3-1.3h1.5c0.4,0,0.7,0,0.9-0.1v0.9c-0.2,0-0.3,0.1-0.5,0.1c0.4,0.4,0.5,0.8,0.5,1.4
				C110.3,113.5,110,113.9,109.4,113.9z M109.2,111.5h-0.8c0.1,1,0.4,1.6,0.8,1.6c0.3,0,0.4-0.2,0.4-0.5
				C109.6,112.1,109.5,111.8,109.2,111.5z"/>
			<path class="st0" d="M110.2,109.7h-3.7v-0.9h0.6v0c-0.4-0.2-0.7-0.6-0.7-1.3v-0.1l0.8,0c0,0,0,0.2,0,0.2c0,0.6,0.3,0.9,0.7,1.1
				h2.4V109.7z"/>
			<path class="st0" d="M108.4,107.2c-1.4,0-1.9-1-1.9-1.8c0-0.9,0.5-1.3,1.1-1.5l0.3,0.7c-0.4,0.1-0.6,0.4-0.6,0.8
				c0,0.5,0.3,0.9,1.2,0.9c0.8,0,1.2-0.3,1.2-0.9c0-0.4-0.1-0.7-0.6-0.9l0.3-0.7c0.6,0.3,1.1,0.7,1.1,1.6
				C110.3,106.4,109.8,107.2,108.4,107.2z"/>
			<path class="st0" d="M110.2,103.2h-5.2v-0.9h2c-0.3-0.2-0.6-0.7-0.6-1.4c0-0.7,0.4-1.1,1.1-1.1h2.7v0.9h-2.5
				c-0.4,0-0.6,0.2-0.6,0.6c0,0.4,0.2,0.7,0.5,1h2.6V103.2z"/>
		</g>

			<rect x="87.8" y="184.5" transform="matrix(6.123234e-17 -1 1 6.123234e-17 -83.25 299.25)" class="st16" width="40.5" height="13.5"/>
		<rect x="353.2" y="162" class="st17" width="13.5" height="45"/>
		<g>
			<path class="st0" d="M107.6,203.1c-1.7,0-2.7-1-2.7-2.3c0-1.2,0.7-1.8,1.6-2l0.2,0.8c-0.7,0.2-1,0.5-1,1.2c0,0.9,0.7,1.4,1.9,1.4
				c1.2,0,1.9-0.5,1.9-1.4c0-0.7-0.3-1.1-1.1-1.2l0.2-0.8c1,0.3,1.7,0.9,1.7,2.1C110.3,202.2,109.4,203.1,107.6,203.1z"/>
			<path class="st0" d="M110.2,197.9h-5.2V197h5.2V197.9z"/>
			<path class="st0" d="M105.9,196h-0.8v-0.9h0.8V196z M110.2,196h-3.7v-0.9h3.7V196z"/>
			<path class="st0" d="M110.2,194.1h-3.7v-0.9h0.6c-0.3-0.3-0.7-0.7-0.7-1.3c0-0.7,0.3-1.1,1.1-1.1h2.7v0.9h-2.5
				c-0.4,0-0.6,0.2-0.6,0.6c0,0.4,0.2,0.7,0.5,1h2.6V194.1z"/>
			<path class="st0" d="M105.9,189.9h-0.8V189h0.8V189.9z M110.2,189.9h-3.7V189h3.7V189.9z"/>
			<path class="st0" d="M108.4,188.2c-1.4,0-1.9-1-1.9-1.8c0-0.9,0.5-1.3,1.1-1.5l0.3,0.7c-0.4,0.1-0.6,0.4-0.6,0.8
				c0,0.5,0.3,0.9,1.2,0.9c0.8,0,1.2-0.3,1.2-0.9c0-0.4-0.1-0.7-0.6-0.9l0.3-0.7c0.6,0.3,1.1,0.7,1.1,1.6
				C110.3,187.3,109.8,188.2,108.4,188.2z"/>
			<path class="st0" d="M109.4,184.5c-0.8,0-1.3-0.7-1.5-2.4h-0.1c-0.4,0-0.5,0.2-0.5,0.6c0,0.5,0.3,0.9,0.5,1.3l-0.5,0.4
				c-0.4-0.4-0.7-1-0.7-1.8c0-1,0.5-1.3,1.3-1.3h1.5c0.4,0,0.7,0,0.9-0.1v0.9c-0.2,0-0.3,0.1-0.5,0.1c0.4,0.4,0.5,0.8,0.5,1.4
				C110.3,184,110,184.5,109.4,184.5z M109.2,182.1h-0.8c0.1,1,0.4,1.6,0.8,1.6c0.3,0,0.4-0.2,0.4-0.5
				C109.6,182.7,109.5,182.3,109.2,182.1z"/>
			<path class="st0" d="M110.2,180.3h-5.2v-0.9h5.2V180.3z"/>
		</g>
		<polyline class="st8" points="591.8,234 612,234 612,153"/>
		<g>
			<path class="st2" d="M414,18l0.1-0.3c1.3-3.8,4.9-6.4,8.9-6.4h0c4,0,7.6,2.6,8.9,6.4L432,18"/>
			<g>
				<path class="st3" d="M416.2,31v-1.7h2.2V31h9v-1.8h2.2V31c4.8-0.3,9-3.1,11.2-7.2v-6.6c0-0.8-0.6-1.4-1.4-1.4h-33.1
					c-0.8,0-1.4,0.6-1.4,1.4v6.6C407.2,27.9,411.4,30.6,416.2,31z"/>
				<path class="st3" d="M429.8,32v1.8h-2.2V32h-9v1.8h-2.2V32c-4.6-0.3-8.7-2.7-11.2-6.3v15.7c0,0.8,0.6,1.4,1.4,1.4h33.1
					c0.8,0,1.4-0.6,1.4-1.4V25.7C438.5,29.3,434.4,31.7,429.8,32z"/>
			</g>
		</g>
		<text transform="matrix(0 -1 1 0 362.2496 198.8022)" class="st3 st12 st18">Optional</text>
		<rect x="479.2" y="162" class="st17" width="13.5" height="45"/>
		<text transform="matrix(0 -1 1 0 488.2496 202.4072)" class="st3 st12 st18">Suggested</text>
		<g>
			<g>
				<line class="st2" x1="0.8" y1="189" x2="0.8" y2="189.5"/>
				<line class="st19" x1="0.8" y1="191.3" x2="0.8" y2="201.1"/>
				<polyline class="st2" points="0.8,202 0.8,202.5 1.3,202.5"/>
				<line class="st20" x1="3.3" y1="202.5" x2="87.7" y2="202.5"/>
				<polyline class="st2" points="88.7,202.5 89.2,202.5 89.2,202"/>
				<line class="st19" x1="89.2" y1="200.2" x2="89.2" y2="190.4"/>
				<line class="st2" x1="89.2" y1="189.5" x2="89.2" y2="189"/>
			</g>
		</g>
		<rect y="220.5" class="st15" width="90" height="18"/>
		<g>
			<text transform="matrix(1 0 0 1 6.7499 231.8956)" class="st11 st12 st13">Professional Work</text>
		</g>
		<rect x="378" y="117" class="st3" width="90" height="18"/>
		<g>
			<text transform="matrix(1 0 0 1 384.7499 128.3956)" class="st11 st12 st13">Fellowship</text>
		</g>
		<g>
			<text transform="matrix(1 0 0 1 378 147.7498)" class="st3 st14 st13">1-3 Years</text>
		</g>
		<rect x="504" y="117" class="st3" width="90" height="18"/>
		<g>
			<text transform="matrix(1 0 0 1 510.7499 128.3956)" class="st11 st12 st13">Board Certification</text>
		</g>
	</g>
</svg>
